<svg width="489" height="1149" viewBox="0 0 489 1149" fill="none" xmlns="http://www.w3.org/2000/svg">
<path d="M38 500.412L69.5734 417.5L223.087 14.3695C239.166 -4.87625 248.395 -4.7032 265.221 14.3695L422.352 417.5L448.804 485.364L450.309 500.412H38Z" fill="#DC2626"/>
<path d="M433.887 973H318.457L132.129 648.977H129.492C130.273 662.453 130.957 676.027 131.543 689.699C132.129 703.371 132.715 717.043 133.301 730.715C133.887 744.191 134.473 757.766 135.059 771.438V973H53.9062V544.68H168.457L354.492 865.48H356.543C356.152 852.199 355.664 839.016 355.078 825.93C354.492 812.844 353.906 799.758 353.32 786.672C352.93 773.586 352.539 760.5 352.148 747.414V544.68H433.887V973Z" fill="#525252"/>
</svg>
