<svg width="1060" height="627" viewBox="0 0 1060 627" fill="none" xmlns="http://www.w3.org/2000/svg">
<path d="M42.9411 456.303C66.6567 456.303 85.8821 437.078 85.8821 413.362C85.8821 389.647 66.6567 370.421 42.9411 370.421C19.2254 370.421 0 389.647 0 413.362C0 437.078 19.2254 456.303 42.9411 456.303Z" fill="#DD2A26"/>
<path d="M1016.27 255.911C1039.99 255.911 1059.21 236.686 1059.21 212.97C1059.21 189.254 1039.99 170.029 1016.27 170.029C992.555 170.029 973.33 189.254 973.33 212.97C973.33 236.686 992.555 255.911 1016.27 255.911Z" fill="#DD2A26"/>
<path fill-rule="evenodd" clip-rule="evenodd" d="M644.116 12.5776C640.129 16.5649 636.962 21.3013 634.804 26.5111C632.646 31.7208 631.535 37.3049 631.535 42.9438C631.535 48.5828 632.645 54.1669 634.804 59.3766C636.962 64.5863 640.125 69.3201 644.112 73.3073L740.836 170.024H472.344C405.325 170.024 341.59 199.342 297.975 250.227L184.171 383C176.568 391.87 172.593 403.284 173.041 414.958C173.49 426.633 178.328 437.708 186.589 445.969L354.367 613.756C358.355 617.744 363.088 620.907 368.298 623.065C373.508 625.223 379.092 626.334 384.731 626.334C390.37 626.334 395.953 625.223 401.163 623.065C406.373 620.907 411.106 617.744 415.094 613.756L415.098 613.752C423.151 605.699 427.675 594.776 427.675 583.387C427.675 571.999 423.15 561.077 415.097 553.024L318.372 456.299H586.855C653.875 456.299 717.621 426.981 761.236 376.096L875.041 243.323C882.644 234.453 886.618 223.039 886.17 211.364C885.721 199.69 880.883 188.616 872.622 180.355L704.845 12.5776C696.792 4.52454 685.869 0.000107375 674.481 1.91092e-09C663.092 -0.000107371 652.169 4.52469 644.116 12.5776ZM472.344 255.907H751.144L696.029 320.206C668.696 352.095 628.856 370.415 586.855 370.415H308.067L363.182 306.117C390.516 274.227 430.344 255.907 472.344 255.907Z" fill="#DD2A26"/>
<path d="M504.508 537H479.607L504.508 362.778H417.356C402.914 362.778 403.163 354.813 407.894 346.351C412.625 337.889 409.139 344.36 409.637 343.364C441.758 286.618 490.065 201.996 554.309 89H579.209L554.309 263.222H641.461C653.662 263.222 655.405 271.436 653.164 275.916L651.421 279.649C553.313 451.133 504.508 537 504.508 537Z" fill="#BCD52E"/>
</svg>
