<svg width="482" height="255" viewBox="0 0 482 255" fill="none" xmlns="http://www.w3.org/2000/svg">
<path d="M481.875 199.335V254.758H370.015C330.685 254.758 304.93 236.604 304.93 236.604C266.543 209.486 270.544 165.246 270.544 165.246C275.873 90.2883 338.949 90.4106 338.949 90.4106C359.916 90.6377 365.84 111.465 365.84 111.465C373.056 105.839 371.343 94.9884 371.343 94.9884C371.221 80.8006 359.916 71.3654 359.916 71.3654C346.27 54.9412 318.192 55.9371 318.192 55.9371C261.86 57.4048 211.172 105.647 211.172 105.647L140.303 166.207C98.1768 200.261 48.2226 200.523 48.2226 200.523H0.679688V144.977H42.2121C42.2121 144.977 75.6546 149.293 114.164 115.851L175.388 63.2756C175.388 63.2756 241.539 0.898438 318.716 0.898438C318.716 0.898438 362.38 -2.49124 397.937 30.5145C397.937 30.5145 427.5 56.5312 426.994 95.3029C426.994 95.3029 429.545 140.539 390.249 161.314C390.249 161.314 376.882 169.858 363.865 169.858C363.865 169.858 341.238 169.858 336.538 146.305C336.538 146.305 326.002 150.639 326.002 166.486C326.002 166.486 321.861 199.649 369.491 199.649L481.875 199.335Z" fill="white"/>
</svg>
