<svg width="140" height="140" viewBox="0 0 140 140" fill="none" xmlns="http://www.w3.org/2000/svg">
<path d="M70 140C31.4024 140 0 108.598 0 70C0 31.4024 31.4024 0 70 0C108.598 0 140 31.4024 140 70C140 108.598 108.598 140 70 140Z" fill="#AE7B57"/>
<path d="M82.486 14.1172C82.1066 13.103 81.1382 12.4328 80.0561 12.4328H69.5424H59.0286C57.9466 12.4328 56.9781 13.1045 56.5988 14.1172L55.5772 16.8497H58.0587L58.9962 15.1712C59.1275 14.9365 59.3741 14.7918 59.6427 14.7918H63.6404H63.6921L67.145 21.7316H69.5453L66.4113 14.7918H69.5409H72.6808L69.5453 21.7316H71.9457L75.3986 14.7918H75.4429H79.4405C79.7092 14.7918 79.9572 14.9365 80.0871 15.1712L81.0245 16.8497H83.506L82.486 14.1172Z" fill="white"/>
<path d="M41.8763 39.6088C41.8172 38.8353 42.4299 38.1769 43.2049 38.1769H95.651C96.4319 38.1769 97.0446 38.8441 96.9782 39.6221L93.2315 83.3407C97.8344 83.1414 101.442 82.9421 103.326 82.8329L100.74 31.8896C100.549 27.1966 96.6342 23.4883 91.8689 23.4883H47.4077C42.638 23.4883 38.7216 27.2025 38.5356 31.8984L36.0599 82.6395C37.4535 82.7547 40.7115 83.0086 45.189 83.2625L41.8763 39.6088ZM54.2796 31.3242C54.2796 30.0384 55.3218 28.9947 56.6091 28.9947H82.4771C83.7629 28.9947 84.8066 30.0369 84.8066 31.3242V31.5589C84.8066 32.8447 83.7644 33.8884 82.4771 33.8884H56.6091C55.3233 33.8884 54.2796 32.8462 54.2796 31.5589V31.3242Z" fill="white"/>
<path d="M103.444 85.1846C98.6817 85.4621 83.1119 86.2977 68.2433 86.2977C52.8639 86.2977 39.3785 85.2776 35.9448 84.9941L35.0325 103.691C34.8391 107.657 37.8447 111.07 41.8571 111.441C48.0794 112.017 57.9303 112.697 69.7048 112.697C81.4762 112.697 91.3316 112.017 97.5598 111.442C101.578 111.07 104.585 107.65 104.384 103.677L103.444 85.1846ZM50.6348 103.218C47.6498 103.218 45.2303 100.799 45.2303 97.8137C45.2303 94.8288 47.6498 92.4093 50.6348 92.4093C53.6197 92.4093 56.0393 94.8288 56.0393 97.8137C56.0407 100.799 53.6197 103.218 50.6348 103.218ZM88.7186 103.218C85.7337 103.218 83.3142 100.799 83.3142 97.8137C83.3142 94.8288 85.7337 92.4093 88.7186 92.4093C91.7036 92.4093 94.1231 94.8288 94.1231 97.8137C94.1231 100.799 91.7036 103.218 88.7186 103.218Z" fill="white"/>
<path d="M84.6959 114.262L93.0219 125.768H98.9593L88.2108 114.262H84.6959Z" fill="white"/>
<path d="M54.7225 114.262H51.1278L40.4562 125.768H46.3965L54.7225 114.262Z" fill="white"/>
<path d="M45.5816 121.03H93.0484L90.964 118.66H47.6661L45.5816 121.03Z" fill="white"/>
<path fill-rule="evenodd" clip-rule="evenodd" d="M70.213 42.3394C69.1678 43.038 68.4608 44.0908 65.8273 48.8716C64.3316 51.5867 63.0687 53.8573 63.0209 53.9171C62.9731 53.9773 62.4471 53.7415 61.8521 53.3935C61.2573 53.0459 60.555 52.7655 60.2915 52.7709C59.3119 52.7913 59.2517 52.8828 53.6194 62.9335C52.0978 65.6487 50.2103 69.0145 49.4249 70.4133C48.6396 71.812 47.789 73.2306 47.535 73.5657C47.2806 73.9008 47.0419 74.5007 47.0043 74.8983C46.9015 75.9859 48.6589 76.9547 50.7742 76.9768C53.1705 77.0016 59.6316 75.3393 62.1651 74.0459C63.7227 73.2507 68.5185 71.989 72.0335 71.4496C73.8016 71.1783 77.0802 71.5517 76.9536 72.0099C76.9011 72.2002 76.4774 72.4423 76.0119 72.5479C73.9348 73.0194 71.4437 73.8236 68.2023 75.0695C64.9378 76.3243 63.6506 77.1662 63.9879 77.8256C64.0649 77.9761 65.8577 78.0413 68.0361 77.9728C71.5319 77.8633 72.1694 77.7592 74.0512 76.9918C79.8764 74.6153 85.3254 74.0399 89.0839 75.4043C89.7931 75.6619 90.5501 75.7905 90.7661 75.6903C91.2594 75.4617 91.065 74.9878 89.2808 72.0716C88.5718 70.9126 87.2339 68.6181 86.3075 66.9726C85.3812 65.327 84.5568 63.9134 84.4756 63.8311C84.3944 63.7488 83.7602 62.6717 83.0666 61.4376C79.4656 55.031 74.6571 46.6525 73.311 44.4397C72.6444 43.3438 71.2518 41.9735 70.8321 42.0004C70.764 42.0049 70.4854 42.1575 70.213 42.3394ZM64.2912 56.2613C66.8237 51.6193 69.6667 46.5813 70.0228 46.1041C70.2378 45.8163 70.5441 45.5805 70.7036 45.5805C71.0809 45.5805 71.8337 46.593 72.7053 48.2732C73.0894 49.0137 73.5242 49.7542 73.6716 49.9187C73.8189 50.0833 74.3503 50.9584 74.8527 51.8635C75.3549 52.7685 76.1637 54.1822 76.6498 55.005C77.1359 55.8277 77.803 56.9722 78.1326 57.5481C78.4619 58.124 78.9574 58.9318 79.2335 59.3432C79.8858 60.315 79.9408 61.5815 79.3133 61.1841C79.075 61.0331 78.0536 60.7431 77.0438 60.5397C73.8461 59.8958 71.228 60.5843 66.738 63.2492C63.1293 65.3911 61.4873 65.8919 59.6215 65.4189C56.9335 64.7376 55.7711 63.1911 56.9186 61.8232C57.1655 61.5288 58.0002 60.1247 58.7733 58.7033C59.5464 57.2815 60.3742 56.0279 60.6129 55.9172C60.9277 55.7715 61.2853 56.0509 61.9155 56.9359C62.3931 57.6067 62.8956 58.1468 63.0318 58.136C63.168 58.1249 63.7348 57.2815 64.2912 56.2613Z" fill="white"/>
</svg>
