<svg width="384" height="315" viewBox="0 0 384 315" fill="none" xmlns="http://www.w3.org/2000/svg">
<path fill-rule="evenodd" clip-rule="evenodd" d="M202.369 3.66592C193.268 9.7488 187.112 18.9161 164.182 60.5428C151.159 84.184 140.162 103.954 139.746 104.475C139.33 104.999 134.75 102.946 129.569 99.9161C124.39 96.889 118.275 94.448 115.981 94.4949C107.452 94.6721 106.928 95.4692 57.8863 182.982C44.6368 206.623 28.2028 235.93 21.3636 248.109C14.5265 260.288 7.12016 272.641 4.90796 275.558C2.69361 278.476 0.615088 283.699 0.287355 287.161C-0.607441 296.631 14.6946 305.066 33.1123 305.259C53.9772 305.475 110.235 291.001 132.295 279.739C145.857 272.815 187.614 261.829 218.22 257.133C233.615 254.77 262.162 258.022 261.06 262.012C260.603 263.669 256.914 265.776 252.861 266.696C234.775 270.801 213.085 277.804 184.861 288.651C156.437 299.577 145.229 306.908 148.166 312.649C148.836 313.96 164.447 314.528 183.414 313.931C213.852 312.978 219.404 312.071 235.788 305.389C286.509 284.697 333.955 279.687 366.681 291.566C372.856 293.809 379.447 294.93 381.328 294.057C385.623 292.067 383.93 287.94 368.395 262.548C362.222 252.457 350.572 232.479 342.506 218.151C334.44 203.823 327.262 191.514 326.555 190.797C325.848 190.081 320.326 180.703 314.287 169.957C282.932 114.174 241.064 41.2209 229.344 21.9536C223.539 12.4112 211.414 0.479881 207.759 0.714339C207.166 0.753416 204.741 2.08201 202.369 3.66592ZM150.807 124.886C172.858 84.4679 197.612 40.6008 200.713 36.4457C202.585 33.9396 205.252 31.8868 206.64 31.8868C209.926 31.8868 216.48 40.7024 224.07 55.3326C227.414 61.7802 231.2 68.2278 232.483 69.6606C233.766 71.0934 238.393 78.7133 242.768 86.5937C247.14 94.4741 254.182 106.783 258.415 113.947C262.647 121.111 268.456 131.076 271.326 136.09C274.193 141.105 278.508 148.139 280.912 151.721C286.591 160.182 287.07 171.21 281.606 167.75C279.532 166.434 270.638 163.91 261.845 162.139C234.003 156.533 211.207 162.527 172.112 185.73C140.691 204.38 126.393 208.741 110.147 204.622C86.7421 198.691 76.621 185.225 86.6125 173.314C88.7622 170.751 96.0305 158.525 102.762 146.149C109.493 133.769 116.701 122.854 118.78 121.89C121.52 120.621 124.634 123.054 130.121 130.76C134.28 136.601 138.655 141.303 139.841 141.209C141.027 141.113 145.962 133.769 150.807 124.886Z" fill="white"/>
</svg>
