<svg width="140" height="140" viewBox="0 0 140 140" fill="none" xmlns="http://www.w3.org/2000/svg">
<path d="M140.003 70C140.003 108.661 108.662 140 70.0051 140C31.3448 140 0.00341797 108.661 0.00341797 70C0.00341797 31.3387 31.3448 -7.59801e-07 70.0051 -7.59801e-07C108.662 -7.59801e-07 140.003 31.3387 140.003 70Z" fill="#00459D"/>
<path d="M87.4363 106.656L97.121 120.038H104.027L91.5259 106.656H87.4363Z" fill="white"/>
<path d="M52.5744 106.656H48.3926L35.9803 120.038H42.8897L52.5744 106.656Z" fill="white"/>
<path d="M51.3256 111.132H88.5897L86.9511 108.725H52.9607L51.3256 111.132Z" fill="white"/>
<path d="M90.6113 115.561H49.2063L47.5712 117.968H92.2465L90.6113 115.561Z" fill="white"/>
<path d="M102.561 77.2553C102.558 76.9822 102.49 76.7296 102.377 76.5009C102.343 76.4224 102.278 76.3678 102.23 76.2961C102.138 76.1561 102.043 76.0161 101.916 75.9035C101.841 75.8386 101.749 75.7977 101.664 75.7464C101.585 75.6952 101.503 75.6543 101.418 75.6167C101.36 75.5928 101.312 75.5519 101.251 75.5314C101.148 75.4938 101.039 75.487 100.93 75.4699C100.916 75.4665 100.899 75.4665 100.882 75.4665C100.698 75.4392 100.513 75.3982 100.319 75.4255C98.2294 75.7157 85.37 77.1256 84.5882 77.1905C83.5641 77.2724 82.7687 78.0781 82.7687 79.0544V84.9603C82.7687 85.3836 82.5946 85.7557 82.3454 86.0698C81.9835 86.5204 81.4408 86.8311 80.799 86.8311H59.214C58.5723 86.8311 58.0295 86.5204 57.671 86.0698C57.4184 85.7557 57.2443 85.3836 57.2443 84.9603V79.0544C57.2443 78.0781 56.4523 77.2724 55.4248 77.1905C53.0762 77.0027 40.8175 75.5723 39.79 75.429C39.5783 75.3982 39.3769 75.4358 39.1789 75.4699C39.1619 75.4733 39.1482 75.4768 39.1311 75.4768C39.039 75.4938 38.9434 75.5006 38.858 75.5314C38.7625 75.5621 38.6839 75.6201 38.5952 75.6645C38.544 75.6918 38.4928 75.7157 38.445 75.743C38.3596 75.7977 38.2675 75.8386 38.1924 75.9035C38.0661 76.0127 37.9705 76.1527 37.8749 76.2927C37.8305 76.3609 37.7656 76.419 37.7281 76.4941C37.6189 76.7228 37.5472 76.9754 37.5438 77.2485L37.257 93.6791C37.2399 94.6282 37.9705 95.4373 38.9604 95.5636L45.1325 96.3658C45.6138 96.4273 46.0337 96.6526 46.3375 96.9769C46.6413 97.3012 46.8257 97.7245 46.8359 98.1854L46.8939 101.142C46.9008 101.469 46.9861 101.777 47.0885 102.077C47.1568 102.272 47.2524 102.446 47.3548 102.62C47.5596 102.972 47.8225 103.272 48.1399 103.528C48.6042 103.903 49.1436 104.197 49.7785 104.293L69.6976 107.31C69.9024 107.341 70.1106 107.341 70.3189 107.31L91.4395 104.108C91.9106 104.04 92.3203 103.811 92.6139 103.49C92.9074 103.17 93.0884 102.75 93.0986 102.299L93.1771 98.1854C93.1874 97.7245 93.3717 97.3012 93.6755 96.9769C93.9793 96.6526 94.3992 96.4273 94.8806 96.3658L99.4823 95.7684C101.37 95.5226 102.77 93.983 102.746 92.1737L102.561 77.2553Z" fill="white"/>
<path d="M74.2033 44.332C75.5483 44.332 76.6373 45.421 76.6373 46.766C76.6373 48.111 75.5483 49.2 74.2033 49.2C72.8583 49.2 71.7693 48.111 71.7693 46.766C71.7693 45.421 72.8583 44.332 74.2033 44.332ZM65.8056 49.2C64.4606 49.2 63.3716 48.111 63.3716 46.766C63.3716 45.421 64.4606 44.332 65.8056 44.332C67.1506 44.332 68.2395 45.421 68.2395 46.766C68.2395 48.111 67.1506 49.2 65.8056 49.2ZM68.8199 28.6387V41.56H48.2761C48.6448 43.8301 48.9657 45.7931 49.1978 47.2269C49.4539 48.8109 49.6109 49.7565 49.6109 49.7701C49.6518 49.9989 52.9085 58.7382 52.9085 58.7382C52.929 58.8133 52.9632 58.885 53.0075 58.9499C53.5162 59.6565 54.315 60.0764 55.1616 60.0764H55.1684C55.602 60.0764 84.4342 60.0764 84.8678 60.0764H84.8746C85.7212 60.0764 86.52 59.6565 87.0287 58.9499C87.073 58.885 87.1072 58.8133 87.1311 58.7382C87.1311 58.7382 90.4253 49.8794 90.4458 49.5858C90.4458 49.5721 90.4492 49.5551 90.4526 49.538L90.8247 47.2303L91.743 41.56H71.2197V28.6387H93.8322L95.3103 19.5136C91.1183 17.4619 85.9363 15.9121 80.1534 15.0689L80.15 15.0928C77.1186 14.6387 73.6674 14.3793 70.001 14.3793C66.3518 14.3793 62.9107 14.6353 59.8862 15.0893V15.0654C54.0863 15.9121 48.8906 17.4653 44.6951 19.5307C45.1321 22.231 45.6476 25.3888 46.1733 28.6387H68.8199Z" fill="white"/>
<path d="M41.7747 53.9466C42.2902 53.6325 42.8978 53.4482 43.5464 53.4482C45.4342 53.4482 46.9636 54.9775 46.9636 56.862C46.9636 58.6576 45.5742 60.129 43.8127 60.2655C43.724 60.2723 43.6352 60.2792 43.5464 60.2792C42.4165 60.2792 41.4163 59.7261 40.795 58.8795C40.5663 58.5689 40.3853 58.2138 40.2727 57.8315C40.1805 57.5242 40.1293 57.1999 40.1293 56.862C40.1293 55.6262 40.7916 54.5474 41.7747 53.9466ZM48.5612 61.2453C49.9711 61.2453 51.1112 62.3855 51.1112 63.7954C51.1112 65.2019 49.9711 66.3455 48.5612 66.3455C47.1547 66.3455 46.0111 65.2019 46.0111 63.7954C46.0111 62.3855 47.1547 61.2453 48.5612 61.2453ZM86.5559 70.8859H86.5627C86.5593 70.8859 86.5593 70.8859 86.5559 70.8859ZM87.3342 71.0873H87.341C87.3376 71.0873 87.3376 71.0873 87.3342 71.0873ZM91.4409 61.2453H91.4443C92.8542 61.2453 93.9944 62.3855 93.9944 63.7954C93.9944 65.2019 92.8542 66.3455 91.4443 66.3455H91.4409C90.0345 66.3455 88.8909 65.2019 88.8909 63.7954C88.8909 62.3855 90.0345 61.2453 91.4409 61.2453ZM96.4557 53.4482C97.1077 53.4482 97.7153 53.6325 98.2308 53.9466C99.2174 54.5474 99.8762 55.6262 99.8762 56.862C99.8762 57.1999 99.825 57.5242 99.7328 57.8315C99.6202 58.2138 99.4427 58.5689 99.2105 58.8795C98.5892 59.7261 97.5924 60.2792 96.4591 60.2792C96.3703 60.2792 96.2781 60.2723 96.1894 60.2655C94.4279 60.129 93.0419 58.6576 93.0419 56.862C93.0419 54.9775 94.5679 53.4482 96.4557 53.4482ZM39.211 73.4803C39.31 73.4735 39.4022 73.453 39.4978 73.453C39.6958 73.453 39.8938 73.4667 40.0918 73.494C42.1468 73.7842 52.4972 74.9927 55.5969 75.2419C56.4093 75.3067 57.1433 75.5935 57.7407 76.0304C58.4268 76.5323 58.915 77.2389 59.1471 78.0514C59.2393 78.3723 59.3008 78.7035 59.3008 79.0551V82.5372V84.8756H80.7048V82.5372V79.0551C80.7048 78.7035 80.7696 78.3723 80.8618 78.0514C81.0905 77.2389 81.5821 76.5323 82.2648 76.0304C82.8622 75.5935 83.5962 75.3067 84.4087 75.2419C87.5117 74.9927 97.8621 73.7842 99.9138 73.494C100.115 73.4667 100.313 73.453 100.508 73.453C100.607 73.453 100.699 73.4735 100.794 73.4803C101.341 73.5213 101.856 73.6613 102.324 73.89C102.402 73.8798 102.464 73.8729 102.498 73.8661V57.6198L102.109 28.78L102.105 28.3908C102.099 28.1689 102.058 27.9232 101.989 27.6501C101.897 27.3257 101.795 27.0083 101.675 26.6976C101.672 26.684 101.665 26.6703 101.662 26.6566C100.764 24.2738 99.1696 22.188 97.0974 20.6074C95.0424 33.2521 92.3182 50.0036 92.308 50.0651C92.2704 50.2631 92.2397 50.4508 88.9421 59.3028C88.8601 59.5486 88.7475 59.7773 88.6007 59.9788C87.7336 61.1838 86.334 61.9007 84.8593 61.9007H69.6614H55.1497C53.6715 61.9007 52.2719 61.1838 51.4082 59.9788C51.2614 59.7773 51.1454 59.5486 51.0669 59.3028C47.7658 50.4508 47.7351 50.2631 47.7009 50.0651C47.6907 50.0036 44.9665 33.2521 42.9115 20.6074C40.8394 22.188 39.2417 24.2738 38.3473 26.6566C38.3405 26.6703 38.3371 26.684 38.3303 26.6976C38.2142 27.0083 38.1084 27.3257 38.0162 27.6501C37.9479 27.9232 37.9104 28.1689 37.9036 28.3908L37.8967 28.78L37.511 57.6198V73.8661C37.5417 73.8729 37.6066 73.8798 37.6817 73.89C38.1494 73.6613 38.6648 73.5213 39.211 73.4803Z" fill="white"/>
<path d="M96.1886 60.2655C96.2774 60.2723 96.3662 60.2792 96.4549 60.2792H96.4583C96.3696 60.2792 96.2774 60.2723 96.1886 60.2655C94.4272 60.129 93.0446 58.661 93.0446 56.862C93.0446 54.9775 94.574 53.4482 96.4583 53.4482H96.4549C94.5705 53.4482 93.0446 54.9775 93.0446 56.862C93.0446 58.661 94.4272 60.129 96.1886 60.2655Z" fill="white"/>
<path d="M99.8714 56.8626C99.8714 57.2006 99.8202 57.5249 99.728 57.8322C99.6154 58.2145 99.4379 58.5661 99.2057 58.8802C98.5844 59.7268 97.5876 60.2798 96.4577 60.2798C97.5876 60.2798 98.5913 59.7268 99.2126 58.8802C99.4413 58.5661 99.6222 58.2145 99.7349 57.8322C99.8236 57.5249 99.8748 57.2006 99.8748 56.8626C99.8748 55.6268 99.216 54.5447 98.2328 53.9472C99.216 54.5447 99.8714 55.6268 99.8714 56.8626Z" fill="#00459D"/>
</svg>
