<svg width="367" height="401" viewBox="0 0 367 401" fill="none" xmlns="http://www.w3.org/2000/svg">
<path d="M89.0636 400.529H189.495C242.896 362.951 241.695 278.867 216.786 174.589L233.16 171.166L250.627 201.976L277.918 219.093L296.476 281.854L291.017 179.154L259.36 131.227L305.209 155.191L328.133 198.553L322.675 236.209L366.341 154.049L343.416 86.7242L239.71 68.4665L246.26 35.3744L315.034 51.3499L235.344 0L187.311 41.0799L155.654 2.28224L63.9558 23.9632L111.988 55.9143H54.1311L0.640625 93.5708L3.91555 155.191L41.0314 154.049L30.1149 134.651L134.913 108.405L74.8723 134.651L39.9397 197.412L110.896 249.902L104.347 184.859L130.546 171.166L167.662 167.743C206.375 290.574 181.345 368.984 89.0636 400.529Z" fill="white"/>
</svg>
