<svg width="140" height="140" viewBox="0 0 140 140" fill="none" xmlns="http://www.w3.org/2000/svg">
<path d="M70 140C31.4024 140 0 108.598 0 70C0 31.4024 31.4024 0 70 0C108.598 0 140 31.4024 140 70C140 108.598 108.598 140 70 140Z" fill="#00A650"/>
<path d="M82.486 14.1172C82.1066 13.103 81.1382 12.4328 80.0561 12.4328H69.5424H59.0286C57.9466 12.4328 56.9781 13.1045 56.5988 14.1172L55.5772 16.8497H58.0587L58.9962 15.1712C59.1275 14.9365 59.3741 14.7918 59.6427 14.7918H63.6404H63.6921L67.145 21.7316H69.5453L66.4113 14.7918H69.5409H72.6808L69.5453 21.7316H71.9457L75.3986 14.7918H75.4429H79.4405C79.7092 14.7918 79.9572 14.9365 80.0871 15.1712L81.0245 16.8497H83.506L82.486 14.1172Z" fill="white"/>
<path d="M41.8763 39.6088C41.8172 38.8353 42.4299 38.1769 43.2049 38.1769H95.651C96.4319 38.1769 97.0446 38.8441 96.9782 39.6221L93.2315 83.3407C97.8344 83.1414 101.442 82.9421 103.326 82.8329L100.74 31.8896C100.549 27.1966 96.6342 23.4883 91.8689 23.4883H47.4077C42.638 23.4883 38.7216 27.2025 38.5356 31.8984L36.0599 82.6395C37.4535 82.7547 40.7115 83.0086 45.189 83.2625L41.8763 39.6088ZM54.2796 31.3242C54.2796 30.0384 55.3218 28.9947 56.6091 28.9947H82.4771C83.7629 28.9947 84.8066 30.0369 84.8066 31.3242V31.5589C84.8066 32.8447 83.7644 33.8884 82.4771 33.8884H56.6091C55.3233 33.8884 54.2796 32.8462 54.2796 31.5589V31.3242Z" fill="white"/>
<path d="M103.444 85.1846C98.6817 85.4621 83.1119 86.2977 68.2433 86.2977C52.8639 86.2977 39.3785 85.2776 35.9448 84.9941L35.0325 103.691C34.8391 107.657 37.8447 111.07 41.8571 111.441C48.0794 112.017 57.9303 112.697 69.7048 112.697C81.4762 112.697 91.3316 112.017 97.5598 111.442C101.578 111.07 104.585 107.65 104.384 103.677L103.444 85.1846ZM50.6348 103.218C47.6498 103.218 45.2303 100.799 45.2303 97.8137C45.2303 94.8288 47.6498 92.4093 50.6348 92.4093C53.6197 92.4093 56.0393 94.8288 56.0393 97.8137C56.0407 100.799 53.6197 103.218 50.6348 103.218ZM88.7186 103.218C85.7337 103.218 83.3142 100.799 83.3142 97.8137C83.3142 94.8288 85.7337 92.4093 88.7186 92.4093C91.7036 92.4093 94.1231 94.8288 94.1231 97.8137C94.1231 100.799 91.7036 103.218 88.7186 103.218Z" fill="white"/>
<path d="M84.6959 114.262L93.0219 125.768H98.9593L88.2108 114.262H84.6959Z" fill="white"/>
<path d="M54.7225 114.262H51.1278L40.4562 125.768H46.3965L54.7225 114.262Z" fill="white"/>
<path d="M45.5816 121.03H93.0484L90.964 118.66H47.6661L45.5816 121.03Z" fill="white"/>
<path d="M59.1552 87H70.6896C76.8226 82.6843 76.6846 73.0273 73.8239 61.0513L75.7045 60.6581L77.7105 64.1966L80.8448 66.1624L82.9761 73.3704L82.3493 61.5755L78.7134 56.0712L83.9791 58.8234L86.6119 63.8034L85.9851 68.1282L91 58.6923L88.3672 50.9601L76.4567 48.8633L77.209 45.0627L85.1075 46.8974L75.9552 41L70.4388 45.718L66.803 41.2621L56.2716 43.7521L61.7881 47.4217H55.1433L49 51.7464L49.3761 58.8234L53.6388 58.6923L52.3851 56.4644L64.4209 53.4501L57.5254 56.4644L53.5134 63.6724L61.6627 69.7009L60.9104 62.2308L63.9194 60.6581L68.1821 60.265C72.6282 74.3719 69.7536 83.3772 59.1552 87Z" fill="white"/>
</svg>
