<svg width="140" height="140" viewBox="0 0 140 140" fill="none" xmlns="http://www.w3.org/2000/svg">
<path d="M70.0106 0C108.677 0 140 31.3582 140 70C140 108.661 108.677 140 70.0106 140C31.3439 140 0 108.659 0 70C0 31.3582 31.3439 0 70.0106 0ZM107.28 97.2319V64.4961V37.0314C107.28 32.1623 101.651 29.8791 101.651 29.8791C101.651 29.8791 93.4392 27.3186 86.4339 27.1493L74.2857 26.8319L78.2222 18.3253H83.1111C83.7037 18.3253 84 18.9368 84 18.9368L85.0794 20.926H88.1058C88.1058 20.926 87.3227 18.6406 86.709 17.5614C86.0952 16.5033 84.9101 15.5934 84.9101 15.5934L82.6032 15.4453H71.8307H70.3069H59.4921L57.2064 15.5934C57.2064 15.5934 56 16.5033 55.4074 17.5614C54.7936 18.6406 54.0106 20.926 54.0106 20.926H57.0582L58.1376 18.9368C58.1376 18.9368 58.4127 18.3253 59.0476 18.3253H63.9153L68.254 26.8319H67.873L57.9894 27.1493C49.6296 27.0012 40.8254 29.731 40.8254 29.731L40.5079 29.8791C40.5079 29.8791 34.8783 32.1623 34.8783 37.0314V64.4961V97.2319C34.8783 97.2319 36.254 103.625 41.7354 103.625H51.3227V107.412H46.9206L45.2275 111.515H49.3333L47.0688 116.531H42.963L40.9735 120.636H45.3968L42.963 125.503H47.9788L50.2434 120.636H66.2222H75.9577H91.9153L94.1799 125.503H99.2169L96.7831 120.636H101.185L99.2169 116.531H95.0899L92.8042 111.515H96.9312L95.2593 107.412H90.8571V103.625H100.444C105.905 103.625 107.28 97.2319 107.28 97.2319Z" fill="#939598"/>
<path d="M107.264 64.4982V97.234C107.264 97.234 105.889 103.627 100.429 103.627H90.8434V107.415H95.2448L96.9166 111.518H92.7902L95.0756 116.533H99.2019L101.17 120.638H96.7684L99.2019 125.505H94.1656L91.9014 120.638H75.9462H66.2122H50.2358L47.9716 125.505H42.9565L45.3899 120.638H40.9673L42.9565 116.533H47.0617L49.3259 111.518H45.2207L46.9135 107.415H51.315V103.627H41.7291C36.2485 103.627 34.873 97.234 34.873 97.234V64.4982H38.5338C38.5338 66.9127 40.4806 68.8785 42.9141 68.8785H99.3077C101.699 68.8785 103.688 66.9106 103.688 64.4982H107.264ZM103.752 86.8652C103.752 83.9874 101.445 81.6597 98.5671 81.6597C95.6681 81.6597 93.3615 84.0064 93.3615 86.8652C93.3615 89.7431 95.6681 92.0708 98.5671 92.0708C101.445 92.0708 103.752 89.7431 103.752 86.8652ZM90.1662 116.321L87.8809 111.306H75.8827H66.4238H54.4256L52.1403 116.321H65.8101H76.4752H90.1662ZM86.2092 107.243V103.455H56.0973V107.243H86.2092ZM48.9661 86.8652C48.9661 84.0064 46.6384 81.6597 43.7394 81.6597C40.8615 81.6597 38.5338 83.9874 38.5338 86.8652C38.5338 89.7431 40.8615 92.0708 43.7394 92.0708C46.6384 92.0708 48.9661 89.7431 48.9661 86.8652Z" fill="white"/>
<path d="M107.264 37.0315V64.4961H103.688V46.975C103.688 44.5626 101.699 42.6158 99.3077 42.6158H42.9141C40.5018 42.6158 38.5338 44.5626 38.5338 46.975V64.4961H34.873V37.0315C34.873 32.1624 40.5018 29.8791 40.5018 29.8791L40.8192 29.731C40.8192 29.731 49.6221 27.0012 57.9806 27.1494L67.8627 26.832H68.2436L63.9057 18.3253H59.0387C58.4038 18.3253 58.1288 18.9369 58.1288 18.9369L57.0496 20.926H54.0024C54.0024 20.926 54.7853 18.6406 55.399 17.5614C55.9915 16.5034 57.1977 15.5935 57.1977 15.5935L59.483 15.4453H70.2962H71.8198H82.5907L84.8972 15.5935C84.8972 15.5935 86.0822 16.5034 86.6959 17.5614C87.3095 18.6406 88.0925 20.926 88.0925 20.926H85.0665L83.9873 18.9369C83.9873 18.9369 83.691 18.3253 83.0985 18.3253H78.2104L74.2745 26.832L86.4208 27.1494C93.425 27.3187 101.635 29.8791 101.635 29.8791C101.635 29.8791 107.264 32.1624 107.264 37.0315ZM88.4734 34.8921C88.4734 32.6914 86.6747 30.8737 84.4528 30.8737H57.24C55.0181 30.8737 53.1983 32.6914 53.1983 34.8921C53.1983 37.1161 55.0181 38.9127 57.24 38.9127H84.4528C86.6747 38.9148 88.4734 37.1161 88.4734 34.8921ZM71.4601 26.1548L75.1209 18.0925H71.9256H70.402H67.2068L70.8253 26.1548H71.4601Z" fill="white"/>
<path d="M103.688 46.9749V64.4961C103.688 66.9105 101.699 68.8763 99.3077 68.8763H42.9141C40.4807 68.8763 38.5339 66.9084 38.5339 64.4961V46.9749C38.5339 44.5626 40.5018 42.6158 42.9141 42.6158H99.3077C101.699 42.6179 103.688 44.5647 103.688 46.9749Z" fill="#939598"/>
<path d="M98.5671 81.6597C101.445 81.6597 103.752 83.9874 103.752 86.8652C103.752 89.7431 101.445 92.0708 98.5671 92.0708C95.6681 92.0708 93.3615 89.7431 93.3615 86.8652C93.3615 84.0064 95.6681 81.6597 98.5671 81.6597Z" fill="#939598"/>
<path d="M87.8809 111.306L90.1663 116.321H76.4752H65.8102H52.1403L54.4256 111.306H66.4238H75.8827H87.8809Z" fill="#939598"/>
<path d="M84.4528 30.8737C86.6747 30.8737 88.4734 32.6914 88.4734 34.8921C88.4734 37.1161 86.6747 38.9127 84.4528 38.9127H57.24C55.0181 38.9127 53.1983 37.114 53.1983 34.8921C53.1983 32.6914 55.0181 30.8737 57.24 30.8737H84.4528Z" fill="#939598"/>
<path d="M86.2092 103.455H56.0974V107.243H86.2092V103.455Z" fill="#939598"/>
<path d="M75.1209 18.0925L71.4601 26.1548H70.8253L67.2068 18.0925H70.4021H71.9257H75.1209Z" fill="#939598"/>
<path d="M43.7394 81.6597C46.6385 81.6597 48.9661 84.0064 48.9661 86.8652C48.9661 89.7431 46.6385 92.0708 43.7394 92.0708C40.8615 92.0708 38.5339 89.7431 38.5339 86.8652C38.5339 83.9874 40.8615 81.6597 43.7394 81.6597Z" fill="#939598"/>
<path d="M62.6676 63.3901C62.6676 63.3901 54.0166 56.706 65.2106 49.1165C65.2106 49.1165 72.6296 44.38 84 46.5854C79.7181 48.0197 78.5124 54.7549 78.5124 54.7549C77.9045 58.9663 76.2468 61.5463 76.2468 61.5463C73.1384 67.4186 65.8473 65.3655 65.8473 65.3655C65.051 70.1682 60.8785 73 60.8785 73L57 69.7389C57 69.7389 63.9607 69.0637 65.6326 60.1469C65.6326 60.1469 66.3054 54.7606 70.2811 52.6197C70.2811 52.6197 66.3053 53.8531 65.0267 58.0042C65.0267 58.0042 63.8797 62.2879 62.668 63.3905" fill="white"/>
<circle cx="71" cy="87" r="11.5" stroke="#939598" stroke-width="3"/>
<rect x="60" y="81" width="22" height="4" fill="#939598"/>
<rect x="73" y="84" width="14" height="4" transform="rotate(90 73 84)" fill="#939598"/>
</svg>
