<svg width="140" height="140" viewBox="0 0 140 140" fill="none" xmlns="http://www.w3.org/2000/svg">
<path d="M140.003 70C140.003 108.661 108.661 140 70.0034 140C31.3421 140 0 108.661 0 70C0 31.3387 31.3421 -7.59801e-07 70.0034 -7.59801e-07C108.661 -7.59801e-07 140.003 31.3387 140.003 70Z" fill="#00AB9B"/>
<path d="M87.435 103.855L97.12 117.237H104.026L91.5247 103.855H87.435Z" fill="white"/>
<path d="M52.5722 103.855H48.3903L35.9777 117.237H42.8873L52.5722 103.855Z" fill="white"/>
<path d="M51.3235 108.332H88.5885L86.9499 105.925H52.9587L51.3235 108.332Z" fill="white"/>
<path d="M90.6095 112.761H49.2035L47.5683 115.168H92.2447L90.6095 112.761Z" fill="white"/>
<path d="M47.1777 101.22C49.3353 101.841 66.4077 101.688 70.0024 101.688C73.5971 101.688 90.5842 101.841 92.8305 101.22C93.998 100.909 96.4252 99.1955 98.5828 97.4272H41.4255C43.583 99.117 46.0102 100.909 47.1777 101.22Z" fill="white"/>
<path d="M86.0677 35.2478H53.9336C53.8517 35.2478 53.8517 35.1659 53.8517 35.1659L54.8963 31.3902C54.8963 31.3117 54.9782 31.3117 54.9782 31.3117H85.105C85.1836 31.3117 85.1836 31.3902 85.1836 31.3902L86.1497 35.1659C86.1497 35.2478 86.0677 35.2478 86.0677 35.2478ZM69.6781 21.5107H69.8385H69.999H70.1594H70.3199C72.0882 21.5107 73.5357 22.9547 73.5357 24.7231C73.5357 26.4914 72.0882 27.9355 70.3199 27.9355H70.1594H69.999H69.8385H69.6781C67.9131 27.9355 66.4657 26.4914 66.4657 24.7231C66.4657 22.8762 67.9131 21.5107 69.6781 21.5107ZM95.6093 23.9652C94.551 23.1766 93.4176 22.4529 92.1989 21.8043C90.4408 20.8723 88.5359 20.0701 86.4876 19.4214C82.4184 18.1344 77.8132 17.438 72.9144 17.2468C72.3135 17.2195 71.7059 17.2025 71.0982 17.1888C70.8251 17.1854 70.5657 17.1615 70.296 17.1615C70.197 17.1615 70.1014 17.1683 70.0024 17.1683C69.9068 17.1683 69.8112 17.1615 69.7122 17.1615C69.4391 17.1615 69.1797 17.1854 68.91 17.1888C68.3023 17.2025 67.6946 17.2195 67.0938 17.2468C62.195 17.438 57.5898 18.1344 53.5205 19.4214C51.4723 20.0701 49.5674 20.8723 47.8093 21.8043C46.5905 22.4529 45.4571 23.1766 44.3989 23.9652L44.433 24.0983C44.4228 24.1052 44.4091 24.112 44.3989 24.1222L48.2565 39.4127H48.2633H91.7449H91.7483L95.6093 24.1222C95.5991 24.112 95.5854 24.1052 95.5752 24.0983L95.6093 23.9652Z" fill="white"/>
<path d="M92.4908 86.3815C92.4908 86.8628 92.1699 87.1837 91.6886 87.1837H82.8503C82.3689 87.1837 82.048 86.8628 82.048 86.3815V85.5793C82.048 85.0979 82.3689 84.7736 82.8503 84.7736H91.6886C92.1699 84.7736 92.4908 85.0979 92.4908 85.5793V86.3815ZM92.4908 90.601C92.4908 91.0823 92.1699 91.4032 91.6886 91.4032H82.8503C82.3689 91.4032 82.048 91.0823 82.048 90.601V89.7987C82.048 89.314 82.3689 88.9931 82.8503 88.9931H91.6886C92.1699 88.9931 92.4908 89.314 92.4908 89.7987V90.601ZM57.7861 86.3815C57.7861 86.8628 57.4652 87.1837 56.9805 87.1837H48.1455C47.6642 87.1837 47.3399 86.8628 47.3399 86.3815V85.5793C47.3399 85.0979 47.6642 84.7736 48.1455 84.7736H56.9805C57.4652 84.7736 57.7861 85.0979 57.7861 85.5793V86.3815ZM57.7861 90.601C57.7861 91.0823 57.4652 91.4032 56.9805 91.4032H48.1455C47.6642 91.4032 47.3399 91.0823 47.3399 90.601V89.7987C47.3399 89.314 47.6642 88.9931 48.1455 88.9931H56.9805C57.4652 88.9931 57.7861 89.314 57.7861 89.7987V90.601ZM36.7537 81.2369C36.6786 87.7948 37.9246 92.0348 37.9246 92.0348C37.9246 92.0348 38.4845 94.6702 40.3621 96.3054H99.5608C101.438 94.6702 101.998 92.0348 101.998 92.0348C101.998 92.0348 103.244 87.7197 103.255 81.2369H36.7537Z" fill="white"/>
<path d="M101.967 65.1787H93.7256L97.8597 56.5384L101.967 48.0312V65.1787ZM92.442 74.8739C91.0526 74.8739 89.9261 73.8327 90.0148 72.4433C90.0148 71.1426 91.1414 70.0161 92.442 70.0161C93.7393 70.0161 94.8692 71.0573 94.8692 72.4433C94.8692 73.7439 93.828 74.8739 92.442 74.8739ZM83.9007 76.5364C82.0811 76.5364 80.6985 75.0651 80.6098 73.2455C80.6098 71.4294 82.0811 69.958 83.9007 69.958C85.7168 69.958 87.1916 71.4294 87.1916 73.2455C87.1916 75.0651 85.7168 76.5364 83.9007 76.5364ZM56.1021 76.5364C54.286 76.5364 52.8146 75.0651 52.8146 73.2455C52.8146 71.4294 54.286 69.958 56.1021 69.958C57.9217 69.958 59.393 71.4294 59.393 73.2455C59.3077 75.0651 57.9217 76.5364 56.1021 76.5364ZM47.5608 74.8739C46.1748 74.8739 45.137 73.7439 45.137 72.4433C45.137 71.0573 46.2635 70.0161 47.5608 70.0161C48.8614 70.0161 49.988 71.1426 49.988 72.4433C50.0767 73.8327 48.9502 74.8739 47.5608 74.8739ZM38.0397 48.0312L42.1465 56.5384L46.2806 65.1787H38.0397V48.0312ZM103.254 65.1787V45.0168C103.346 42.9924 103.434 38.633 101.458 32.6418C99.6588 27.347 97.8631 25.4796 97.1428 25.0119L93.6369 39.4898V39.5684L85.9114 65.1787H54.0982L46.3694 39.7254L42.8634 25.0119C42.1465 25.5581 40.3474 27.504 38.5517 32.6418C36.5717 38.7115 36.5717 43.0709 36.7527 45.0953C36.7527 44.8632 36.6639 65.1787 36.6639 65.1787C36.6639 70.2789 36.7527 75.6113 36.7561 80.1209H103.257C103.257 75.5328 103.342 70.2038 103.254 65.1787Z" fill="white"/>
</svg>
