<svg width="605" height="1044" viewBox="0 0 605 1044" fill="none" xmlns="http://www.w3.org/2000/svg">
<path d="M514.272 27.7144C508.05 11.0275 492.17 0 474.425 0H302.012H129.599C111.855 0 95.9739 11.0518 89.7523 27.7144L73 72.6744H113.694L129.067 45.0572C131.221 41.1951 135.264 38.8147 139.67 38.8147H205.227H206.074L262.698 153H302.061L250.666 38.8147H301.988H353.479L302.061 153H341.424L398.047 38.8147H398.773H464.33C468.736 38.8147 472.803 41.1951 474.933 45.0572L490.306 72.6744H531L514.272 27.7144Z" fill="white"/>
<path d="M71.2513 230.461H527.907L506.84 674.143C546.918 672.408 578.332 670.673 594.734 669.722L572.214 226.151C570.556 185.289 536.468 153 494.976 153H107.846C66.3154 153 32.2144 185.34 30.5948 226.228L9.03906 668.038C21.173 669.04 49.5413 671.251 88.5268 673.462L71.2513 230.461Z" fill="white"/>
<path d="M595.746 689.682C554.28 692.098 418.711 699.373 289.248 699.373C155.338 699.373 37.9184 690.491 8.02051 688.023L0.0768795 850.816C-1.60696 885.354 24.5633 915.072 59.4999 918.299C113.679 923.312 199.452 929.237 301.973 929.237C404.469 929.237 490.281 923.312 544.511 918.312C579.499 915.072 605.682 885.29 603.934 850.701L595.746 689.682ZM135.928 846.703C109.938 846.703 88.8707 825.636 88.8707 799.646C88.8707 773.655 109.938 752.588 135.928 752.588C161.919 752.588 182.986 773.655 182.986 799.646C182.999 825.636 161.919 846.703 135.928 846.703ZM467.53 846.703C441.54 846.703 420.472 825.636 420.472 799.646C420.472 773.655 441.54 752.588 467.53 752.588C493.52 752.588 514.588 773.655 514.588 799.646C514.588 825.636 493.52 846.703 467.53 846.703Z" fill="white"/>
<path d="M595.746 689.682C554.28 692.098 418.711 699.373 289.248 699.373C155.338 699.373 37.9184 690.491 8.02051 688.023L0.0768795 850.816C-1.60696 885.354 24.5633 915.072 59.4999 918.299C113.679 923.312 199.452 929.237 301.973 929.237C404.469 929.237 490.281 923.312 544.511 918.312C579.499 915.072 605.682 885.29 603.934 850.701L595.746 689.682ZM135.928 846.703C109.938 846.703 88.8707 825.636 88.8707 799.646C88.8707 773.655 109.938 752.588 135.928 752.588C161.919 752.588 182.986 773.655 182.986 799.646C182.999 825.636 161.919 846.703 135.928 846.703ZM467.53 846.703C441.54 846.703 420.472 825.636 420.472 799.646C420.472 773.655 441.54 752.588 467.53 752.588C493.52 752.588 514.588 773.655 514.588 799.646C514.588 825.636 493.52 846.703 467.53 846.703Z" fill="white"/>
<path d="M432.508 942.938L505.003 1043.12H556.701L463.113 942.938H432.508Z" fill="white"/>
<path d="M171.492 942.938H140.193L47.2734 1043.12H98.997L171.492 942.938Z" fill="white"/>
<path d="M91.8828 1001.8H505.183L487.033 981.156H110.032L91.8828 1001.8Z" fill="white"/>
</svg>
