<svg width="583" height="738" viewBox="0 0 583 738" fill="none" xmlns="http://www.w3.org/2000/svg">
<path fill-rule="evenodd" clip-rule="evenodd" d="M0 530.285V546.448L21.1544 551.677C27.0966 552.866 163.768 582.101 291.169 582.101C381.729 581.626 472.289 571.643 560.709 551.915L581.864 545.973V393.376L582.101 103.633C582.101 63.4631 543.12 34.2273 466.109 17.1136C395.277 1.18844 314.225 0 290.932 0C267.638 0 186.824 1.18844 115.992 17.1136C39.2187 34.465 0.237686 63.4631 0.237686 103.633V313.5L0.475365 530.285H0ZM51.3409 478.944C51.3409 497.959 66.553 513.171 85.5682 513.171C104.583 513.171 119.795 497.722 119.795 478.944C119.795 459.929 104.346 444.717 85.5682 444.717C66.553 444.717 51.3409 459.929 51.3409 478.944ZM462.068 478.944C462.068 497.722 477.28 513.171 496.295 513.171C515.311 513.171 530.523 497.722 530.523 478.944C530.523 459.929 515.073 444.717 496.295 444.717C477.518 444.717 462.068 459.929 462.068 478.944ZM547.874 95H34.2273V141.425V341.322C34.2273 363.665 63.7007 393.376 85.8058 393.376H497.959C518.876 393.376 547.636 361.763 547.636 338.945V144.04C547.636 141.663 547.874 139.286 547.874 137.147V95Z" fill="white"/>
<path d="M569.512 569.328L569.036 569.565C563.807 570.754 441.159 600.94 291.177 600.94C157.834 600.94 19.4983 570.991 13.7938 569.803H13.3184L0.0078125 566.475V634.692C0.0078125 644.2 7.61387 651.806 17.1214 651.806H34.2351V703.147C34.2351 721.924 48.7341 737.374 66.5608 737.374H104.591C122.418 737.374 136.917 721.924 136.917 703.147V651.806H444.962V703.147C444.962 721.924 459.461 737.374 477.288 737.374H515.318C533.145 737.374 547.644 721.924 547.644 703.147V651.806H564.758C574.265 651.806 581.871 644.2 581.871 634.692V566L569.512 569.328Z" fill="white"/>
</svg>
