<svg width="605" height="891" viewBox="0 0 605 891" fill="none" xmlns="http://www.w3.org/2000/svg">
<path d="M71.2513 77.4609H527.907L506.84 521.143C546.918 519.408 578.332 517.673 594.734 516.722L572.214 73.1508C570.556 32.2887 536.468 0 494.976 0H107.846C66.3154 0 32.2144 32.3401 30.5948 73.2279L9.03906 515.038C21.173 516.04 49.5413 518.251 88.5268 520.462L71.2513 77.4609Z" fill="white"/>
<path d="M595.746 536.682C554.28 539.098 418.711 546.373 289.248 546.373C155.338 546.373 37.9184 537.491 8.02051 535.023L0.0768795 697.816C-1.60696 732.354 24.5633 762.072 59.4999 765.299C113.679 770.312 199.452 776.237 301.973 776.237C404.469 776.237 490.281 770.312 544.511 765.312C579.499 762.072 605.682 732.29 603.934 697.701L595.746 536.682ZM135.928 693.703C109.938 693.703 88.8707 672.636 88.8707 646.646C88.8707 620.655 109.938 599.588 135.928 599.588C161.919 599.588 182.986 620.655 182.986 646.646C182.999 672.636 161.919 693.703 135.928 693.703ZM467.53 693.703C441.54 693.703 420.472 672.636 420.472 646.646C420.472 620.655 441.54 599.588 467.53 599.588C493.52 599.588 514.588 620.655 514.588 646.646C514.588 672.636 493.52 693.703 467.53 693.703Z" fill="white"/>
<path d="M432.508 789.938L505.003 890.12H556.701L463.113 789.938H432.508Z" fill="white"/>
<path d="M171.492 789.938H140.193L47.2734 890.12H98.997L171.492 789.938Z" fill="white"/>
<path d="M91.8828 848.799H505.183L487.033 828.156H110.032L91.8828 848.799Z" fill="white"/>
</svg>
