<svg width="624" height="996" viewBox="0 0 624 996" fill="none" xmlns="http://www.w3.org/2000/svg">
<path d="M300.512 136.634V260.444H103.664C107.197 282.197 110.272 301.006 112.496 314.744C114.949 329.922 116.454 338.983 116.454 339.114C116.846 341.305 148.052 425.045 148.052 425.045C148.248 425.764 148.575 426.451 149 427.073C153.874 433.844 161.528 437.867 169.64 437.867H169.706C173.86 437.867 450.127 437.867 454.282 437.867H454.347C462.459 437.867 470.113 433.844 474.987 427.073C475.412 426.451 475.739 425.764 475.968 425.045C475.968 425.045 507.533 340.16 507.73 337.347C507.73 337.216 507.762 337.053 507.795 336.889L511.36 314.777L520.159 260.444H323.507V136.634H540.178L554.341 49.1988C514.173 29.5397 464.52 14.689 409.109 6.6095L409.076 6.83847C380.03 2.48795 346.96 0.00195312 311.83 0.00195312C276.863 0.00195312 243.892 2.45527 214.911 6.80579V6.57681C159.336 14.6891 109.552 29.5724 69.3516 49.3624C73.5384 75.2365 78.4776 105.494 83.5149 136.634H300.512Z" fill="white"/>
<path d="M623.175 626.008V414.296L619.446 137.956L619.413 134.227C619.348 132.1 618.955 129.745 618.301 127.128C617.418 124.021 616.437 120.979 615.292 118.002C615.259 117.871 615.193 117.74 615.161 117.609C606.558 94.7773 591.283 74.7912 571.428 59.6461C551.736 180.806 525.634 341.319 525.536 341.908L525.532 341.925C525.174 343.816 524.787 345.858 493.284 430.423C492.499 432.778 491.419 434.969 490.013 436.899C481.704 448.446 468.293 455.315 454.163 455.315H308.538H169.489C155.325 455.315 141.914 448.446 133.639 436.899C132.232 434.969 131.12 432.778 130.368 430.423C98.7664 345.682 98.4433 343.808 98.1165 341.913L98.1156 341.908C98.0174 341.319 71.915 180.806 52.2236 59.6461C32.3687 74.7912 17.0605 94.7773 8.49049 117.609C8.42507 117.74 8.39236 117.871 8.32694 118.002C7.2148 120.979 6.20079 124.021 5.31763 127.128C4.66343 129.745 4.30362 132.1 4.2382 134.227L4.17278 137.956L0.476562 414.296V626L623.175 626.008Z" fill="white"/>
<path d="M562.705 447.697C563.556 447.763 564.406 447.828 565.257 447.828H565.289C564.439 447.828 563.556 447.763 562.705 447.697C545.827 446.389 532.58 432.323 532.58 415.085C532.58 397.028 547.234 382.374 565.289 382.374H565.257C547.201 382.374 532.58 397.028 532.58 415.085C532.58 432.323 545.827 446.389 562.705 447.697Z" fill="white"/>
<path d="M597.991 415.085C597.991 418.323 597.5 421.431 596.617 424.375C595.538 428.038 593.837 431.407 591.613 434.417C585.66 442.529 576.108 447.828 565.281 447.828C576.108 447.828 585.725 442.529 591.678 434.417C593.87 431.407 595.603 428.038 596.683 424.375C597.533 421.431 598.024 418.323 598.024 415.085C598.024 403.243 591.711 392.874 582.29 387.15C591.711 392.874 597.991 403.243 597.991 415.085Z" fill="#00459D"/>
<path d="M430.258 894.938L502.753 995.12H554.451L460.863 894.938H430.258Z" fill="white"/>
<path d="M169.242 894.938H137.943L45.0234 995.12H96.747L169.242 894.938Z" fill="white"/>
<path d="M89.6328 953.799H502.933L484.783 933.156H107.782L89.6328 953.799Z" fill="white"/>
<path d="M622.915 645C580.145 647.421 431.871 645.002 298.339 645.002C160.22 645.002 0.0792957 645.004 0.0792957 645.004L0.0792957 796.726C-1.65747 831.329 25.3353 861.102 61.3698 864.334C117.251 869.356 205.72 875.293 311.464 875.293C417.181 875.293 505.69 869.356 561.624 864.347C597.712 861.102 624.718 831.264 622.915 796.611V645ZM140.2 792.606C113.393 792.606 91.6638 771.499 91.6638 745.461C91.6638 719.422 113.393 698.316 140.2 698.316C167.008 698.316 188.737 719.422 188.737 745.461C188.75 771.499 167.008 792.606 140.2 792.606ZM482.224 792.606C455.416 792.606 433.687 771.499 433.687 745.461C433.687 719.422 455.416 698.316 482.224 698.316C509.031 698.316 530.76 719.422 530.76 745.461C530.76 771.499 509.031 792.606 482.224 792.606Z" fill="white"/>
</svg>
