<?xml version="1.0" encoding="UTF-8"?>
<svg width="36" height="36" role="presentation" viewBox="0 0 40 40" xmlns="http://www.w3.org/2000/svg">
    <circle cx="20" cy="20" fill="#58a738" r="20"></circle>
    <path d="M28.3 15.7h-4.5c-.4-1.8-1.6-3.2-3.8-3.2-1.2 0-2.2.4-2.8 1.2-.8.9-1.1 2.1-1.1 6.4s.3 5.4 1.1 6.4c.6.7 1.6 1.2 2.8 1.2 2.2 0 3.3-1.4 3.8-3.2h4.5c-.8 4.7-4 7.1-8.2 7.1-2.6 0-4.5-.9-6-2.4-2.2-2.2-2.3-4.8-2.3-9.1s0-6.8 2.3-9.1c1.5-1.5 3.4-2.4 6-2.4 4.2 0 7.4 2.4 8.2 7.1z" fill="#fff"></path>
</svg>
