<?xml version="1.0" encoding="UTF-8" standalone="no"?>
<!-- Created with Inkscape (http://www.inkscape.org/) -->

<svg
   xmlns:dc="http://purl.org/dc/elements/1.1/"
   xmlns:cc="http://creativecommons.org/ns#"
   xmlns:rdf="http://www.w3.org/1999/02/22-rdf-syntax-ns#"
   xmlns:svg="http://www.w3.org/2000/svg"
   xmlns="http://www.w3.org/2000/svg"
   xmlns:sodipodi="http://sodipodi.sourceforge.net/DTD/sodipodi-0.dtd"
   xmlns:inkscape="http://www.inkscape.org/namespaces/inkscape"
   width="34.998749"
   height="18.742041"
   id="svg58668"
   version="1.1"
   inkscape:version="0.47 r22583"
   sodipodi:docname="New document 20">
  <defs
     id="defs58670">
    <inkscape:perspective
       sodipodi:type="inkscape:persp3d"
       inkscape:vp_x="0 : 526.18109 : 1"
       inkscape:vp_y="0 : 1000 : 0"
       inkscape:vp_z="744.09448 : 526.18109 : 1"
       inkscape:persp3d-origin="372.04724 : 350.78739 : 1"
       id="perspective58676" />
    <inkscape:perspective
       id="perspective58660"
       inkscape:persp3d-origin="0.5 : 0.33333333 : 1"
       inkscape:vp_z="1 : 0.5 : 1"
       inkscape:vp_y="0 : 1000 : 0"
       inkscape:vp_x="0 : 0.5 : 1"
       sodipodi:type="inkscape:persp3d" />
  </defs>
  <sodipodi:namedview
     id="base"
     pagecolor="#ffffff"
     bordercolor="#666666"
     borderopacity="1.0"
     inkscape:pageopacity="0.0"
     inkscape:pageshadow="2"
     inkscape:zoom="1"
     inkscape:cx="17.499375"
     inkscape:cy="9.3710224"
     inkscape:document-units="px"
     inkscape:current-layer="layer1"
     showgrid="false"
     inkscape:window-width="1024"
     inkscape:window-height="524"
     inkscape:window-x="-8"
     inkscape:window-y="-8"
     inkscape:window-maximized="0" />
  <metadata
     id="metadata58673">
    <rdf:RDF>
      <cc:Work
         rdf:about="">
        <dc:format>image/svg+xml</dc:format>
        <dc:type
           rdf:resource="http://purl.org/dc/dcmitype/StillImage" />
        <dc:title></dc:title>
      </cc:Work>
    </rdf:RDF>
  </metadata>
  <g
     inkscape:label="Layer 1"
     inkscape:groupmode="layer"
     id="layer1"
     transform="translate(-357.50063,-522.99116)">
    <g
       id="g58693">
      <g
         transform="matrix(1.25,0,0,-1.25,392.2125,537.48133)"
         id="g57993">
        <path
           id="path57995"
           style="fill:#0071bc;fill-opacity:1;fill-rule:nonzero;stroke:none"
           d="m 0,0 0,-3.172 -6.402,0 c -2.251,0 -3.725,1.039 -3.725,1.039 -2.197,1.552 -1.968,4.084 -1.968,4.084 0.305,4.29 3.915,4.283 3.915,4.283 1.2,-0.013 1.539,-1.205 1.539,-1.205 0.413,0.322 0.315,0.943 0.315,0.943 -0.007,0.812 -0.654,1.352 -0.654,1.352 -0.781,0.94 -2.388,0.883 -2.388,0.883 -3.224,-0.084 -6.125,-2.845 -6.125,-2.845 l -4.056,-3.466 c -2.411,-1.949 -5.27,-1.964 -5.27,-1.964 l -2.721,0 0,3.179 2.377,0 c 0,0 1.914,-0.247 4.118,1.667 l 3.504,3.009 c 0,0 3.786,3.57 8.203,3.57 0,0 2.499,0.194 4.534,-1.695 0,0 1.692,-1.489 1.663,-3.708 0,0 0.146,-2.589 -2.103,-3.778 0,0 -0.765,-0.489 -1.51,-0.489 0,0 -1.295,0 -1.564,1.348 0,0 -0.603,-0.248 -0.603,-1.155 0,0 -0.237,-1.898 2.489,-1.898 L 0,0 z" />
      </g>
      <g
         transform="matrix(1.25,0,0,-1.25,392.2125,537.48133)"
         id="g57997">
        <path
           id="path57999"
           style="fill:none;stroke:#000000;stroke-width:0.45899999;stroke-linecap:butt;stroke-linejoin:miter;stroke-miterlimit:4;stroke-opacity:1;stroke-dasharray:none"
           d="m 0,0 0,-3.172 -6.402,0 c -2.251,0 -3.725,1.039 -3.725,1.039 -2.197,1.552 -1.968,4.084 -1.968,4.084 0.305,4.29 3.915,4.283 3.915,4.283 1.2,-0.013 1.539,-1.205 1.539,-1.205 0.413,0.322 0.315,0.943 0.315,0.943 -0.007,0.812 -0.654,1.352 -0.654,1.352 -0.781,0.94 -2.388,0.883 -2.388,0.883 -3.224,-0.084 -6.125,-2.845 -6.125,-2.845 l -4.056,-3.466 c -2.411,-1.949 -5.27,-1.964 -5.27,-1.964 l -2.721,0 0,3.179 2.377,0 c 0,0 1.914,-0.247 4.118,1.667 l 3.504,3.009 c 0,0 3.786,3.57 8.203,3.57 0,0 2.499,0.194 4.534,-1.695 0,0 1.692,-1.489 1.663,-3.708 0,0 0.146,-2.589 -2.103,-3.778 0,0 -0.765,-0.489 -1.51,-0.489 0,0 -1.295,0 -1.564,1.348 0,0 -0.603,-0.248 -0.603,-1.155 0,0 -0.237,-1.898 2.489,-1.898 L 0,0 z" />
      </g>
    </g>
  </g>
</svg>
