<?xml version="1.0" encoding="UTF-8" standalone="no"?>
<!-- Created with Inkscape (http://www.inkscape.org/) -->

<svg
   xmlns:dc="http://purl.org/dc/elements/1.1/"
   xmlns:cc="http://creativecommons.org/ns#"
   xmlns:rdf="http://www.w3.org/1999/02/22-rdf-syntax-ns#"
   xmlns:svg="http://www.w3.org/2000/svg"
   xmlns="http://www.w3.org/2000/svg"
   xmlns:xlink="http://www.w3.org/1999/xlink"
   xmlns:sodipodi="http://sodipodi.sourceforge.net/DTD/sodipodi-0.dtd"
   xmlns:inkscape="http://www.inkscape.org/namespaces/inkscape"
   width="192.5815"
   height="23.99725"
   id="svg3905"
   version="1.1"
   inkscape:version="0.48.5 r10040"
   sodipodi:docname="New document 4">
  <defs
     id="defs3907">
    <pattern
       patternTransform="matrix(0,-0.50745,-0.50745,0,760.89213,-8812.4102)"
       id="pattern3903"
       xlink:href="#pattern708"
       inkscape:collect="always" />
    <pattern
       patternTransform="matrix(0,0.40596,-0.40596,0,433.442,7217.81)"
       patternUnits="userSpaceOnUse"
       x="0"
       y="0"
       width="54.0601"
       height="50.9976"
       id="pattern724">
      <path
         d="M 54.06,0 0,0 l 0,50.998 54.06,0 0,-50.998 z"
         style="fill:#254f99;fill-opacity:1;fill-rule:nonzero;stroke:none"
         id="path726" />
    </pattern>
    <pattern
       patternTransform="matrix(0,0.40596,-0.40596,0,433.442,7217.81)"
       patternUnits="userSpaceOnUse"
       x="0"
       y="0"
       width="54.0601"
       height="50.9976"
       id="pattern716">
      <path
         d="M 54.06,0 0,0 l 0,50.998 54.06,0 0,-50.998 z"
         style="fill:#254f99;fill-opacity:1;fill-rule:nonzero;stroke:none"
         id="path718" />
    </pattern>
    <pattern
       patternTransform="matrix(0,0.40596,-0.40596,0,433.442,7217.81)"
       patternUnits="userSpaceOnUse"
       x="0"
       y="0"
       width="54.0601"
       height="50.9976"
       id="pattern708">
      <path
         d="M 54.06,0 0,0 l 0,50.998 54.06,0 0,-50.998 z"
         style="fill:#254f99;fill-opacity:1;fill-rule:nonzero;stroke:none"
         id="path710" />
    </pattern>
    <pattern
       patternTransform="matrix(0,0.40596,-0.40596,0,433.442,7217.81)"
       patternUnits="userSpaceOnUse"
       x="0"
       y="0"
       width="54.0601"
       height="50.9976"
       id="pattern700">
      <path
         d="M 54.06,0 0,0 l 0,50.998 54.06,0 0,-50.998 z"
         style="fill:#254f99;fill-opacity:1;fill-rule:nonzero;stroke:none"
         id="path702" />
    </pattern>
    <pattern
       patternTransform="matrix(0,0.40596,-0.40596,0,433.442,7217.81)"
       patternUnits="userSpaceOnUse"
       x="0"
       y="0"
       width="54.0601"
       height="50.9976"
       id="pattern692">
      <path
         d="M 54.06,0 0,0 l 0,50.998 54.06,0 0,-50.998 z"
         style="fill:#254f99;fill-opacity:1;fill-rule:nonzero;stroke:none"
         id="path694" />
    </pattern>
    <pattern
       patternTransform="matrix(0,0.40596,-0.40596,0,433.442,7217.81)"
       patternUnits="userSpaceOnUse"
       x="0"
       y="0"
       width="54.0601"
       height="50.9976"
       id="pattern684">
      <path
         d="M 54.06,0 0,0 l 0,50.998 54.06,0 0,-50.998 z"
         style="fill:#254f99;fill-opacity:1;fill-rule:nonzero;stroke:none"
         id="path686" />
    </pattern>
    <pattern
       patternTransform="matrix(0.40596,0,0,0.40596,169.609,544.923)"
       patternUnits="userSpaceOnUse"
       x="0"
       y="0"
       width="54.0601"
       height="50.9976"
       id="pattern676">
      <path
         d="M 54.06,0 0,0 l 0,50.998 54.06,0 0,-50.998 z"
         style="fill:#254f99;fill-opacity:1;fill-rule:nonzero;stroke:none"
         id="path678" />
    </pattern>
  </defs>
  <sodipodi:namedview
     pagecolor="#ffffff"
     bordercolor="#666666"
     borderopacity="1.0"
     inkscape:pageopacity="0.0"
     inkscape:pageshadow="2"
     inkscape:zoom="1.1313708"
     inkscape:cx="173.02469"
     inkscape:cy="-88.19907"
     inkscape:document-units="pt"
     inkscape:current-layer="layer1"
     id="namedview3909"
     showgrid="false"
     units="pt"
     fit-margin-top="0"
     fit-margin-left="0"
     fit-margin-right="0"
     fit-margin-bottom="0"
     inkscape:window-width="944"
     inkscape:window-height="1001"
     inkscape:window-x="0"
     inkscape:window-y="0"
     inkscape:window-maximized="0" />
  <metadata
     id="metadata3911">
    <rdf:RDF>
      <cc:Work
         rdf:about="">
        <dc:format>image/svg+xml</dc:format>
        <dc:type
           rdf:resource="http://purl.org/dc/dcmitype/StillImage" />
        <dc:title></dc:title>
      </cc:Work>
    </rdf:RDF>
  </metadata>
  <g
     inkscape:label="Layer 1"
     inkscape:groupmode="layer"
     id="layer1"
     transform="translate(-113.76925,-203.00888)">
    <g
       id="g674"
       transform="matrix(1.25,0,0,-1.25,129.4905,215.60013)">
      <path
         d="m 0,0 c -0.176,-0.807 -0.805,-0.875 -0.805,-0.875 l -7.912,0 0.406,1.825 7.914,0 C -0.397,0.95 0.179,0.805 0,0 M 2.836,-0.939 C 3.485,1.966 2.004,2.86 2.004,2.86 c 0,0 1.838,0.716 2.496,3.667 0.657,2.952 -1.806,3.546 -1.806,3.546 l -12.023,0 -0.811,-3.65 10.96,0 c 0,0 0.563,-0.207 0.423,-0.833 C 1.103,4.962 0.414,4.598 0.414,4.598 l -10.961,0 -2.03,-9.122 3.048,0 8.978,0 c 0,0 2.742,0.678 3.387,3.585"
         style="fill:url(#pattern676);fill-opacity:1;fill-rule:nonzero;stroke:none"
         id="path680"
         inkscape:connector-curvature="0" />
    </g>
    <g
       id="g682"
       transform="matrix(1.25,0,0,-1.25,155.3895,208.71051)">
      <path
         d="m 0,0 c 0.983,4.414 -2.389,4.56 -2.389,4.56 l -11.217,0 -0.807,-3.648 10.948,0 c 0,0 0.544,-0.29 0.391,-0.969 -0.153,-0.679 -0.798,-0.856 -0.798,-0.856 l -10.949,0 -2.031,-9.123 3.049,0 1.216,5.474 5.122,0 2.186,-5.474 3.047,0 -2.188,5.474 c 0,0 3.436,0.149 4.42,4.562"
         style="fill:url(#pattern684);fill-opacity:1;fill-rule:nonzero;stroke:none"
         id="path688"
         inkscape:connector-curvature="0" />
    </g>
    <g
       id="g690"
       transform="matrix(1.25,0,0,-1.25,218.3245,203.00975)">
      <path
         d="m 0,0 -14.616,0 -0.404,-1.826 -0.408,-1.823 14.62,0 0.404,1.823 L 0,0 z"
         style="fill:url(#pattern692);fill-opacity:1;fill-rule:nonzero;stroke:none"
         id="path696"
         inkscape:connector-curvature="0" />
    </g>
    <g
       id="g698"
       transform="matrix(1.25,0,0,-1.25,216.80225,209.85226)">
      <path
         d="m 0,0 -6.546,0 -9.275,-5.432 -0.822,-3.69 14.615,0 0.405,1.824 0.408,1.825 -8.07,0 L 0,0 z"
         style="fill:url(#pattern700);fill-opacity:1;fill-rule:nonzero;stroke:none"
         id="path704"
         inkscape:connector-curvature="0" />
    </g>
    <path
       d="m 219.08963,209.85226 -0.004,0 -2.53375,11.4025 18.27375,0 1.01375,-4.56125 -14.46625,0 0.50375,-2.28 14.46875,0 1.01625,-4.56125 -18.2725,0 z m 1.5225,-6.8425 0,0 -1.01625,4.56125 18.27125,0 1.01625,-4.56125 -18.27125,0 z"
       style="fill:url(#pattern3903);fill-opacity:1;fill-rule:nonzero;stroke:none"
       id="path712"
       inkscape:connector-curvature="0" />
    <g
       id="g714"
       transform="matrix(1.25,0,0,-1.25,177.97438,209.85226)">
      <path
         d="m 0,0 0,0 -2.027,-9.122 14.619,0 0.811,3.649 -11.574,0 0.407,1.824 11.57,0 L 14.619,0 0,0 z m 1.218,5.474 0,0 -0.812,-3.649 14.618,0 0.811,3.649 -14.617,0 z"
         style="fill:url(#pattern716);fill-opacity:1;fill-rule:nonzero;stroke:none"
         id="path720"
         inkscape:connector-curvature="0" />
    </g>
    <g
       id="g722"
       transform="matrix(1.25,0,0,-1.25,157.4195,209.85226)">
      <path
         d="m 0,0 0,0 -2.031,-9.122 14.622,0 0.809,3.649 -11.57,0 0.403,1.824 11.572,0 L 14.619,0 0,0 z m 1.216,5.474 0,0 -0.812,-3.649 14.621,0 0.811,3.649 -14.62,0 z"
         style="fill:url(#pattern724);fill-opacity:1;fill-rule:nonzero;stroke:none"
         id="path728"
         inkscape:connector-curvature="0" />
    </g>
    <g
       id="g780"
       transform="matrix(1.25,0,0,-1.25,262.66813,203.00975)">
      <path
         d="M 0,0 C 0,0 3.37,-0.147 2.387,-4.56 1.403,-8.974 -2.032,-9.123 -2.032,-9.123 l 2.188,-5.473 -3.737,0 -2.184,5.473 -3.872,0 -1.217,-5.473 -3.609,0 2.029,9.122 10.949,0 c 0,0 0.647,0.177 0.798,0.856 0.154,0.679 -0.393,0.969 -0.393,0.969 l -0.797,0 -10.896,0 c -3.861,0 -7.879,-0.388 -13.394,-3.771 0,0 7.27,7.42 17.919,7.42 L 0,0"
         style="fill:#f4c528;fill-opacity:1;fill-rule:nonzero;stroke:none"
         id="path782"
         inkscape:connector-curvature="0" />
    </g>
    <g
       id="g784"
       transform="matrix(1.25,0,0,-1.25,274.44538,212.40088)">
      <path
         d="m 0,0 c -0.302,0.05 -0.651,0.101 -1.086,0.101 -3.309,0 -4.464,-3.489 -4.464,-4.975 0,-1.3 0.703,-2.002 1.639,-2.002 0.518,0 1.254,0.183 2.141,1.084 0.117,0.118 0.585,0.685 0.601,0.736 L 0,0 z m -1.456,-6.258 c -0.451,-0.517 -1.451,-1.601 -3.04,-1.601 -1.571,0 -2.557,1.199 -2.557,2.969 0,2.035 1.57,5.942 6.368,5.942 0.836,0 1.537,-0.117 2.256,-0.235 l -1.955,-8.478 -1.386,0 0.314,1.403 z"
         style="fill:#f4c528;fill-opacity:1;fill-rule:nonzero;stroke:none"
         id="path786"
         inkscape:connector-curvature="0" />
    </g>
    <g
       id="g788"
       transform="matrix(1.25,0,0,-1.25,274.44538,212.40088)">
      <path
         d="m 0,0 c -0.302,0.05 -0.651,0.101 -1.086,0.101 -3.309,0 -4.464,-3.489 -4.464,-4.975 0,-1.3 0.703,-2.002 1.639,-2.002 0.518,0 1.254,0.183 2.141,1.084 0.117,0.118 0.585,0.685 0.601,0.736 L 0,0 z m -1.456,-6.258 c -0.451,-0.517 -1.451,-1.601 -3.04,-1.601 -1.571,0 -2.557,1.199 -2.557,2.969 0,2.035 1.57,5.942 6.368,5.942 0.836,0 1.537,-0.117 2.256,-0.235 l -1.955,-8.478 -1.386,0 0.314,1.403 z"
         style="fill:none;stroke:#f4c528;stroke-width:0.81199998;stroke-linecap:butt;stroke-linejoin:miter;stroke-miterlimit:4;stroke-opacity:1;stroke-dasharray:none"
         id="path790"
         inkscape:connector-curvature="0" />
    </g>
    <g
       id="g792"
       transform="matrix(1.25,0,0,-1.25,279.06475,220.91238)">
      <path
         d="m 0,0 c 0.334,-0.067 0.634,-0.134 1.069,-0.134 3.176,0 4.463,3.355 4.463,4.974 0,1.22 -0.537,2.12 -1.641,2.12 C 2.424,6.96 1.219,5.29 1.219,5.255 L 0,0 z m 1.487,6.442 c 0.434,0.485 1.37,1.551 2.958,1.551 1.388,0 2.624,-0.866 2.624,-2.886 0,-2.555 -1.888,-6.191 -5.766,-6.191 -0.535,0 -1.003,0.082 -1.521,0.166 l -0.82,-3.539 -1.421,0 2.808,12.117 1.421,0 -0.283,-1.218 z"
         style="fill:#f4c528;fill-opacity:1;fill-rule:nonzero;stroke:none"
         id="path794"
         inkscape:connector-curvature="0" />
    </g>
    <g
       id="g796"
       transform="matrix(1.25,0,0,-1.25,279.06475,220.91238)">
      <path
         d="m 0,0 c 0.334,-0.067 0.634,-0.134 1.069,-0.134 3.176,0 4.463,3.355 4.463,4.974 0,1.22 -0.537,2.12 -1.641,2.12 C 2.424,6.96 1.219,5.29 1.219,5.255 L 0,0 z m 1.487,6.442 c 0.434,0.485 1.37,1.551 2.958,1.551 1.388,0 2.624,-0.866 2.624,-2.886 0,-2.555 -1.888,-6.191 -5.766,-6.191 -0.535,0 -1.003,0.082 -1.521,0.166 l -0.82,-3.539 -1.421,0 2.808,12.117 1.421,0 -0.283,-1.218 z"
         style="fill:none;stroke:#f4c528;stroke-width:0.81199998;stroke-linecap:butt;stroke-linejoin:miter;stroke-miterlimit:4;stroke-opacity:1;stroke-dasharray:none"
         id="path798"
         inkscape:connector-curvature="0" />
    </g>
    <g
       id="g800"
       transform="matrix(1.25,0,0,-1.25,291.86975,208.20851)">
      <path
         d="M 0,0 C 0,0.451 0.369,0.818 0.822,0.818 1.254,0.818 1.64,0.467 1.64,0 c 0,-0.45 -0.368,-0.818 -0.818,-0.818 -0.219,0 -0.42,0.083 -0.587,0.234 C 0.084,-0.433 0,-0.216 0,0 m -0.518,-2.52 1.455,0 -1.972,-8.495 -1.453,0 1.97,8.495 z"
         style="fill:#f4c528;fill-opacity:1;fill-rule:nonzero;stroke:none"
         id="path802"
         inkscape:connector-curvature="0" />
    </g>
    <g
       id="g804"
       transform="matrix(1.25,0,0,-1.25,291.86975,208.20851)">
      <path
         d="M 0,0 C 0,0.451 0.369,0.818 0.822,0.818 1.254,0.818 1.64,0.467 1.64,0 c 0,-0.45 -0.368,-0.818 -0.818,-0.818 -0.219,0 -0.42,0.083 -0.587,0.234 C 0.084,-0.433 0,-0.216 0,0 z m -0.518,-2.52 1.455,0 -1.972,-8.495 -1.453,0 1.97,8.495 z"
         style="fill:none;stroke:#f4c528;stroke-width:0.81199998;stroke-linecap:butt;stroke-linejoin:miter;stroke-miterlimit:4;stroke-opacity:1;stroke-dasharray:none"
         id="path806"
         inkscape:connector-curvature="0" />
    </g>
    <g
       id="g808"
       transform="matrix(1.25,0,0,-1.25,302.757,212.44301)">
      <path
         d="m 0,0 c -0.369,0.05 -0.685,0.101 -1.037,0.101 -3.31,0 -4.48,-3.455 -4.48,-5.026 0,-1.001 0.436,-2.033 1.606,-2.033 0.636,0 1.318,0.283 2.089,1.068 0.134,0.115 0.619,0.667 0.637,0.751 L 0,0 z m 0.968,4.172 1.405,0 -2.724,-11.799 -1.404,0 0.284,1.235 c -0.517,-0.551 -1.471,-1.568 -2.992,-1.568 -1.405,0 -2.625,0.967 -2.625,2.886 0,2.538 2.056,6.16 6.285,6.16 0.334,0 0.702,-0.034 1.037,-0.05 l 0.734,3.136 z"
         style="fill:#f4c528;fill-opacity:1;fill-rule:nonzero;stroke:none"
         id="path810"
         inkscape:connector-curvature="0" />
    </g>
    <g
       id="g812"
       transform="matrix(1.25,0,0,-1.25,302.757,212.44301)">
      <path
         d="m 0,0 c -0.369,0.05 -0.685,0.101 -1.037,0.101 -3.31,0 -4.48,-3.455 -4.48,-5.026 0,-1.001 0.436,-2.033 1.606,-2.033 0.636,0 1.318,0.283 2.089,1.068 0.134,0.115 0.619,0.667 0.637,0.751 L 0,0 z m 0.968,4.172 1.405,0 -2.724,-11.799 -1.404,0 0.284,1.235 c -0.517,-0.551 -1.471,-1.568 -2.992,-1.568 -1.405,0 -2.625,0.967 -2.625,2.886 0,2.538 2.056,6.16 6.285,6.16 0.334,0 0.702,-0.034 1.037,-0.05 l 0.734,3.136 z"
         style="fill:none;stroke:#f4c528;stroke-width:0.81199998;stroke-linecap:butt;stroke-linejoin:miter;stroke-miterlimit:4;stroke-opacity:1;stroke-dasharray:none"
         id="path814"
         inkscape:connector-curvature="0" />
    </g>
  </g>
</svg>
