<svg width="211" height="207" viewBox="0 0 211 207" fill="none" xmlns="http://www.w3.org/2000/svg">
<path d="M208 169.5L3.20324 71.7566" stroke="#B933AD" stroke-width="12.8"/>
<path d="M167.229 2.73413L66 204.35" stroke="#1C1CE5" stroke-width="8"/>
<path d="M162.562 175.124C178.337 175.124 191.124 162.337 191.124 146.562C191.124 130.788 178.337 118 162.562 118C146.788 118 134 130.788 134 146.562C134 162.337 146.788 175.124 162.562 175.124Z" fill="#B933AD"/>
<path d="M172.803 138.392C170.083 141.352 163.123 149.752 162.443 161.992H156.683C157.284 150.633 164.404 141.593 166.803 139.032H152.683L152.803 134.072H172.803V138.392Z" fill="white"/>
<rect x="104" y="23" width="79" height="43" rx="20" fill="#1C1CE5"/>
<path d="M123.763 55L118.606 38.1982H118.475C118.494 38.5986 118.523 39.2041 118.562 40.0146C118.611 40.8154 118.655 41.6699 118.694 42.5781C118.733 43.4863 118.753 44.3066 118.753 45.0391V55H114.695V33.584H120.877L125.945 49.9609H126.033L131.409 33.584H137.591V55H133.357V44.8633C133.357 44.1895 133.367 43.4131 133.387 42.5342C133.416 41.6553 133.45 40.8203 133.489 40.0293C133.528 39.2285 133.558 38.6279 133.577 38.2275H133.445L127.923 55H123.763ZM152.693 55H148.167V42.6074C148.167 42.2656 148.172 41.8457 148.182 41.3477C148.191 40.8398 148.206 40.3223 148.226 39.7949C148.245 39.2578 148.265 38.7744 148.284 38.3447C148.177 38.4717 147.957 38.6914 147.625 39.0039C147.303 39.3066 147 39.5801 146.717 39.8242L144.256 41.8018L142.073 39.0771L148.973 33.584H152.693V55ZM166.463 41.3184C167.771 41.3184 168.934 41.5674 169.949 42.0654C170.975 42.5635 171.78 43.2959 172.366 44.2627C172.952 45.2295 173.245 46.4209 173.245 47.8369C173.245 49.3799 172.923 50.7129 172.278 51.8359C171.644 52.9492 170.691 53.8037 169.422 54.3994C168.162 54.9951 166.59 55.293 164.705 55.293C163.582 55.293 162.522 55.1953 161.526 55C160.54 54.8145 159.676 54.5264 158.934 54.1357V50.2246C159.676 50.6152 160.564 50.9473 161.6 51.2207C162.645 51.4844 163.626 51.6162 164.544 51.6162C165.442 51.6162 166.199 51.499 166.814 51.2646C167.43 51.0205 167.894 50.6494 168.206 50.1514C168.528 49.6436 168.689 48.999 168.689 48.2178C168.689 47.1729 168.338 46.3721 167.635 45.8154C166.932 45.2588 165.853 44.9805 164.397 44.9805C163.841 44.9805 163.26 45.0342 162.654 45.1416C162.059 45.249 161.561 45.3564 161.16 45.4639L159.358 44.4971L160.164 33.584H171.78V37.4219H164.134L163.738 41.626C164.07 41.5576 164.432 41.4893 164.822 41.4209C165.213 41.3525 165.76 41.3184 166.463 41.3184Z" fill="white"/>
</svg>
