<svg width="1786" height="1057" viewBox="0 0 1786 1057" fill="none" xmlns="http://www.w3.org/2000/svg">
<path d="M72.4054 770.057C112.394 770.057 144.811 737.613 144.811 697.59C144.811 657.568 112.394 625.123 72.4054 625.123C32.417 625.123 0 657.568 0 697.59C0 737.613 32.417 770.057 72.4054 770.057Z" fill="#00AB9B"/>
<path d="M72.4054 770.057C112.394 770.057 144.811 737.613 144.811 697.59C144.811 657.568 112.394 625.123 72.4054 625.123C32.417 625.123 0 657.568 0 697.59C0 737.613 32.417 770.057 72.4054 770.057Z" stroke="#00AB9B"/>
<path d="M1713.59 431.874C1753.58 431.874 1786 399.429 1786 359.407C1786 319.384 1753.58 286.939 1713.59 286.939C1673.6 286.939 1641.19 319.384 1641.19 359.407C1641.19 399.429 1673.6 431.874 1713.59 431.874Z" fill="#00AB9B"/>
<path d="M1713.59 431.874C1753.58 431.874 1786 399.429 1786 359.407C1786 319.384 1753.58 286.939 1713.59 286.939C1673.6 286.939 1641.19 319.384 1641.19 359.407C1641.19 399.429 1673.6 431.874 1713.59 431.874Z" stroke="#00AB9B"/>
<path d="M1086.08 21.2259C1079.36 27.9548 1074.02 35.9481 1070.38 44.74C1066.74 53.5319 1064.87 62.9556 1064.87 72.4719C1064.87 81.9883 1066.74 91.412 1070.38 100.204C1074.02 108.996 1079.35 116.984 1086.08 123.713L1249.17 286.932H796.448C683.443 286.932 575.977 336.408 502.434 422.282L310.542 646.35C297.723 661.32 291.021 680.581 291.776 700.283C292.532 719.984 300.69 738.675 314.619 752.616L597.521 1035.77C604.244 1042.5 612.226 1047.84 621.01 1051.48C629.795 1055.12 639.21 1057 648.718 1057C658.226 1057 667.641 1055.12 676.426 1051.48C685.21 1047.84 693.192 1042.5 699.915 1035.77L699.922 1035.77C713.5 1022.18 721.129 1003.74 721.129 984.523C721.128 965.304 713.499 946.872 699.921 933.282L536.827 770.049H989.532C1102.54 770.049 1210.02 720.573 1283.57 634.699L1475.46 410.631C1488.28 395.662 1494.98 376.4 1494.22 356.698C1493.47 336.997 1485.31 318.308 1471.38 304.367L1188.48 21.2259C1174.9 7.63561 1156.49 0.000181206 1137.28 0C1118.08 -0.000181199 1099.66 7.63586 1086.08 21.2259ZM796.448 431.869H1266.55L1173.62 540.379C1127.53 594.195 1060.35 625.112 989.532 625.112H519.451L612.384 516.603C658.473 462.786 725.629 431.869 796.448 431.869Z" fill="#00AB9B"/>
<path d="M1086.08 21.2259C1079.36 27.9548 1074.02 35.9481 1070.38 44.74C1066.74 53.5319 1064.87 62.9556 1064.87 72.4719C1064.87 81.9883 1066.74 91.412 1070.38 100.204C1074.02 108.996 1079.35 116.984 1086.08 123.713L1249.17 286.932H796.448C683.443 286.932 575.977 336.408 502.434 422.282L310.542 646.35C297.723 661.32 291.021 680.581 291.776 700.283C292.532 719.984 300.69 738.675 314.619 752.616L597.521 1035.77C604.244 1042.5 612.226 1047.84 621.01 1051.48C629.795 1055.12 639.21 1057 648.718 1057C658.226 1057 667.641 1055.12 676.426 1051.48C685.21 1047.84 693.192 1042.5 699.915 1035.77L699.922 1035.77C713.5 1022.18 721.129 1003.74 721.129 984.523C721.128 965.304 713.499 946.872 699.921 933.282L536.827 770.049H989.532C1102.54 770.049 1210.02 720.573 1283.57 634.699L1475.46 410.631C1488.28 395.662 1494.98 376.4 1494.22 356.698C1493.47 336.997 1485.31 318.308 1471.38 304.367L1188.48 21.2259C1174.9 7.63561 1156.49 0.000181206 1137.28 0C1118.08 -0.000181199 1099.66 7.63586 1086.08 21.2259ZM796.448 431.869H1266.55L1173.62 540.379C1127.53 594.195 1060.35 625.112 989.532 625.112H519.451L612.384 516.603C658.473 462.786 725.629 431.869 796.448 431.869Z" stroke="#00AB9B"/>
</svg>
