<svg width="213" height="202" viewBox="0 0 213 202" fill="none" xmlns="http://www.w3.org/2000/svg">
<path d="M211 157L208.001 156.822L206.055 156.545L203.135 156.05L196.303 155.02L186.194 153.278L176.561 151.674L174.496 151.714L169.57 151.08L165.975 150.763L158.567 149.635L147.842 147.361L143.969 146.569C143.969 146.569 138.19 144.57 129.769 144.391C121.348 144.213 108.915 156.073 101.765 149.635C93.423 143.104 79.5601 132.231 79.5601 132.231L68.9344 124.074L63.433 119.916L58.4479 116.015L48.6763 108.511L38.4479 100.69L33.8997 97.2057C33.8997 97.2057 10.6465 79.623 3 74" stroke="#FDB913" stroke-width="10" stroke-miterlimit="10"/>
<path d="M187 2C182.662 19.8205 177.012 48.5765 175.142 53.8499C169.011 71.1348 169.972 69.0207 156.204 69.0207C146.982 69.0207 138.747 66.0852 138.747 74.6837C138.747 83.2823 137.656 106.48 137.656 106.48L137.448 113.338L137.267 119.027C137.267 119.027 136.643 129.444 132.305 130.457C121.836 132.899 111.237 144.823 101.418 135.003C91.5724 125.21 74.4533 112.325 74.4533 112.325L51.5412 94.6344L32.24 79.9571L8.5 62.5" stroke="#0071BC" stroke-width="10" stroke-miterlimit="10"/>
</svg>
