<svg width="200" height="200" viewBox="0 0 200 200" fill="none" xmlns="http://www.w3.org/2000/svg">
<g filter="url(#filter0_d_10_4)">
<path d="M23.2617 68H20.2441V59.7383C20.2441 59.5104 20.2474 59.2305 20.2539 58.8984C20.2604 58.5599 20.2702 58.2148 20.2832 57.8633C20.2962 57.5052 20.3092 57.1829 20.3223 56.8965C20.2507 56.9811 20.1042 57.1276 19.8828 57.3359C19.668 57.5378 19.4661 57.7201 19.2773 57.8828L17.6367 59.2012L16.1816 57.3848L20.7812 53.7227H23.2617V68ZM28.6621 68L34.0234 56.2617H26.9824V53.7227H37.2266V55.6172L31.8262 68H28.6621ZM44.0527 65.8223C44.3783 65.8223 44.694 65.7897 45 65.7246C45.3125 65.6595 45.6217 65.5781 45.9277 65.4805V67.6973C45.6087 67.8405 45.2116 67.9577 44.7363 68.0488C44.2676 68.1465 43.7533 68.1953 43.1934 68.1953C42.5423 68.1953 41.9564 68.0911 41.4355 67.8828C40.9212 67.668 40.5143 67.3001 40.2148 66.7793C39.9219 66.252 39.7754 65.5195 39.7754 64.582V59.3184H38.3496V58.0586L39.9902 57.0625L40.8496 54.7578H42.7539V57.082H45.8105V59.3184H42.7539V64.582C42.7539 64.9987 42.8711 65.3112 43.1055 65.5195C43.3464 65.7214 43.6621 65.8223 44.0527 65.8223ZM51.123 52.8047V55.9004C51.123 56.4408 51.1035 56.9551 51.0645 57.4434C51.0319 57.9316 51.0059 58.2767 50.9863 58.4785H51.1426C51.377 58.1009 51.6536 57.7949 51.9727 57.5605C52.2982 57.3262 52.6562 57.1536 53.0469 57.043C53.4375 56.9323 53.8574 56.877 54.3066 56.877C55.0944 56.877 55.7812 57.0169 56.3672 57.2969C56.9531 57.5703 57.4089 58.0033 57.7344 58.5957C58.0599 59.1816 58.2227 59.9434 58.2227 60.8809V68H55.2441V61.623C55.2441 60.8418 55.1009 60.2526 54.8145 59.8555C54.528 59.4583 54.0853 59.2598 53.4863 59.2598C52.8874 59.2598 52.4154 59.3997 52.0703 59.6797C51.7253 59.9531 51.4811 60.36 51.3379 60.9004C51.1947 61.4342 51.123 62.0885 51.123 62.8633V68H48.1445V52.8047H51.123ZM75.1465 64.0352C75.1465 64.8815 74.9414 65.6172 74.5312 66.2422C74.1211 66.8672 73.5221 67.349 72.7344 67.6875C71.9531 68.026 71.0026 68.1953 69.8828 68.1953C69.388 68.1953 68.903 68.1628 68.4277 68.0977C67.959 68.0326 67.5065 67.9382 67.0703 67.8145C66.6406 67.6842 66.2305 67.5247 65.8398 67.3359V64.5234C66.5169 64.8229 67.2201 65.0931 67.9492 65.334C68.6784 65.5749 69.401 65.6953 70.1172 65.6953C70.612 65.6953 71.0091 65.6302 71.3086 65.5C71.6146 65.3698 71.8359 65.1908 71.9727 64.9629C72.1094 64.735 72.1777 64.4746 72.1777 64.1816C72.1777 63.8236 72.0573 63.5176 71.8164 63.2637C71.5755 63.0098 71.2435 62.7721 70.8203 62.5508C70.4036 62.3294 69.9316 62.0918 69.4043 61.8379C69.0723 61.6816 68.7109 61.4928 68.3203 61.2715C67.9297 61.0436 67.5586 60.7669 67.207 60.4414C66.8555 60.1159 66.5658 59.722 66.3379 59.2598C66.1165 58.791 66.0059 58.2311 66.0059 57.5801C66.0059 56.7272 66.2012 55.998 66.5918 55.3926C66.9824 54.7871 67.5391 54.3249 68.2617 54.0059C68.9909 53.6803 69.8503 53.5176 70.8398 53.5176C71.582 53.5176 72.2884 53.6055 72.959 53.7812C73.6361 53.9505 74.3424 54.1979 75.0781 54.5234L74.1016 56.877C73.444 56.61 72.8548 56.4049 72.334 56.2617C71.8132 56.112 71.2826 56.0371 70.7422 56.0371C70.3646 56.0371 70.0423 56.099 69.7754 56.2227C69.5085 56.3398 69.3066 56.5091 69.1699 56.7305C69.0332 56.9453 68.9648 57.196 68.9648 57.4824C68.9648 57.821 69.0625 58.1074 69.2578 58.3418C69.4596 58.5697 69.7591 58.791 70.1562 59.0059C70.5599 59.2207 71.0612 59.4714 71.6602 59.7578C72.3893 60.1029 73.0111 60.4642 73.5254 60.8418C74.0462 61.2129 74.4466 61.6523 74.7266 62.1602C75.0065 62.6615 75.1465 63.2865 75.1465 64.0352ZM82.0996 65.8223C82.4251 65.8223 82.7409 65.7897 83.0469 65.7246C83.3594 65.6595 83.6686 65.5781 83.9746 65.4805V67.6973C83.6556 67.8405 83.2585 67.9577 82.7832 68.0488C82.3145 68.1465 81.8001 68.1953 81.2402 68.1953C80.5892 68.1953 80.0033 68.0911 79.4824 67.8828C78.9681 67.668 78.5612 67.3001 78.2617 66.7793C77.9688 66.252 77.8223 65.5195 77.8223 64.582V59.3184H76.3965V58.0586L78.0371 57.0625L78.8965 54.7578H80.8008V57.082H83.8574V59.3184H80.8008V64.582C80.8008 64.9987 80.918 65.3112 81.1523 65.5195C81.3932 65.7214 81.709 65.8223 82.0996 65.8223ZM92.793 53.7227L87.4707 68H84.7656L90.0879 53.7227H92.793ZM108.311 64.0352C108.311 64.8815 108.105 65.6172 107.695 66.2422C107.285 66.8672 106.686 67.349 105.898 67.6875C105.117 68.026 104.167 68.1953 103.047 68.1953C102.552 68.1953 102.067 68.1628 101.592 68.0977C101.123 68.0326 100.671 67.9382 100.234 67.8145C99.8047 67.6842 99.3945 67.5247 99.0039 67.3359V64.5234C99.681 64.8229 100.384 65.0931 101.113 65.334C101.842 65.5749 102.565 65.6953 103.281 65.6953C103.776 65.6953 104.173 65.6302 104.473 65.5C104.779 65.3698 105 65.1908 105.137 64.9629C105.273 64.735 105.342 64.4746 105.342 64.1816C105.342 63.8236 105.221 63.5176 104.98 63.2637C104.74 63.0098 104.408 62.7721 103.984 62.5508C103.568 62.3294 103.096 62.0918 102.568 61.8379C102.236 61.6816 101.875 61.4928 101.484 61.2715C101.094 61.0436 100.723 60.7669 100.371 60.4414C100.02 60.1159 99.7298 59.722 99.502 59.2598C99.2806 58.791 99.1699 58.2311 99.1699 57.5801C99.1699 56.7272 99.3652 55.998 99.7559 55.3926C100.146 54.7871 100.703 54.3249 101.426 54.0059C102.155 53.6803 103.014 53.5176 104.004 53.5176C104.746 53.5176 105.452 53.6055 106.123 53.7812C106.8 53.9505 107.507 54.1979 108.242 54.5234L107.266 56.877C106.608 56.61 106.019 56.4049 105.498 56.2617C104.977 56.112 104.447 56.0371 103.906 56.0371C103.529 56.0371 103.206 56.099 102.939 56.2227C102.673 56.3398 102.471 56.5091 102.334 56.7305C102.197 56.9453 102.129 57.196 102.129 57.4824C102.129 57.821 102.227 58.1074 102.422 58.3418C102.624 58.5697 102.923 58.791 103.32 59.0059C103.724 59.2207 104.225 59.4714 104.824 59.7578C105.553 60.1029 106.175 60.4642 106.689 60.8418C107.21 61.2129 107.611 61.6523 107.891 62.1602C108.171 62.6615 108.311 63.2865 108.311 64.0352ZM116.943 68L113.506 56.7988H113.418C113.431 57.0658 113.451 57.4694 113.477 58.0098C113.509 58.5436 113.538 59.1133 113.564 59.7188C113.59 60.3242 113.604 60.8711 113.604 61.3594V68H110.898V53.7227H115.02L118.398 64.6406H118.457L122.041 53.7227H126.162V68H123.34V61.2422C123.34 60.793 123.346 60.2754 123.359 59.6895C123.379 59.1035 123.402 58.5469 123.428 58.0195C123.454 57.4857 123.473 57.0853 123.486 56.8184H123.398L119.717 68H116.943ZM135.83 56.0371C135.251 56.0371 134.736 56.151 134.287 56.3789C133.844 56.6003 133.47 56.9225 133.164 57.3457C132.865 57.7689 132.637 58.2799 132.48 58.8789C132.324 59.4779 132.246 60.1517 132.246 60.9004C132.246 61.9095 132.37 62.7721 132.617 63.4883C132.871 64.1979 133.262 64.7415 133.789 65.1191C134.316 65.4902 134.997 65.6758 135.83 65.6758C136.41 65.6758 136.989 65.6107 137.568 65.4805C138.154 65.3503 138.789 65.1647 139.473 64.9238V67.4629C138.841 67.7233 138.219 67.9089 137.607 68.0195C136.995 68.1367 136.309 68.1953 135.547 68.1953C134.076 68.1953 132.865 67.8926 131.914 67.2871C130.97 66.6751 130.27 65.8223 129.814 64.7285C129.359 63.6283 129.131 62.3457 129.131 60.8809C129.131 59.8001 129.277 58.8105 129.57 57.9121C129.863 57.0137 130.293 56.2357 130.859 55.5781C131.426 54.9206 132.126 54.4128 132.959 54.0547C133.792 53.6966 134.749 53.5176 135.83 53.5176C136.54 53.5176 137.249 53.6087 137.959 53.791C138.675 53.9668 139.359 54.2109 140.01 54.5234L139.033 56.9844C138.499 56.7305 137.962 56.5091 137.422 56.3203C136.882 56.1315 136.351 56.0371 135.83 56.0371Z" fill="white"/>
</g>
<path d="M195 59L12 192" stroke="#FDB913" stroke-width="10"/>
<circle cx="161" cy="79" r="12.5" fill="#1C2738" stroke="#FDB913" stroke-width="5"/>
<defs>
<filter id="filter0_d_10_4" x="14.1816" y="52.8047" width="127.828" height="21.3906" filterUnits="userSpaceOnUse" color-interpolation-filters="sRGB">
<feFlood flood-opacity="0" result="BackgroundImageFix"/>
<feColorMatrix in="SourceAlpha" type="matrix" values="0 0 0 0 0 0 0 0 0 0 0 0 0 0 0 0 0 0 127 0" result="hardAlpha"/>
<feOffset dy="4"/>
<feGaussianBlur stdDeviation="1"/>
<feComposite in2="hardAlpha" operator="out"/>
<feColorMatrix type="matrix" values="0 0 0 0 0 0 0 0 0 0 0 0 0 0 0 0 0 0 0.25 0"/>
<feBlend mode="normal" in2="BackgroundImageFix" result="effect1_dropShadow_10_4"/>
<feBlend mode="normal" in="SourceGraphic" in2="effect1_dropShadow_10_4" result="shape"/>
</filter>
</defs>
</svg>
